<?xml version="1.0" encoding="utf-8"?>
<!-- Generator: Adobe Illustrator 17.1.0, SVG Export Plug-In . SVG Version: 6.00 Build 0)  -->
<!DOCTYPE svg PUBLIC "-//W3C//DTD SVG 1.1//EN" "http://www.w3.org/Graphics/SVG/1.1/DTD/svg11.dtd">
<svg version="1.1" id="Layer_1" xmlns="http://www.w3.org/2000/svg" xmlns:xlink="http://www.w3.org/1999/xlink" x="0px" y="0px"
	 viewBox="0 0 546.9 194.1" enable-background="new 0 0 546.9 194.1" xml:space="preserve">
<g>
	<path fill="#400707" d="M222,194.1c-3.9-3.2-2.6-6.6,0-9.4c9.6-10.1,19.2-20.3,29.4-29.9c6.3-5.9,13.8-10.5,20.6-15.8
		c7.2-5.6,13.2-12.2,15.7-21.3c0.3-1,0.1-2.2,0.2-3.3c-1.1,0.2-2.2,0.4-3.2,0.8c-9.7,3.4-19.2,7.3-29,10.3
		c-7.3,2.2-13.4-0.2-17.6-6.9c-0.4-0.7-2.7-0.8-3.8-0.4c-11.3,3.4-22.5,6.9-33.8,10.4c-1.4,0.4-2.9,0.5-4.4,0.6
		c-11.2,0.7-16.6-3.7-18.3-14.9c-0.9-6-0.9-6-6.1-3.2c-5.8,3.2-11.6,6.5-17.5,9.6c-3.1,1.6-6.4,2.9-9.7,3.9c-1.3,0.4-4,0.1-4.3-0.7
		c-0.8-1.6-0.5-3.7-0.4-5.6c0-0.7,0.9-1.4,1.5-1.9c13-12.2,26-24.4,39.1-36.5c1.1-1,3.1-2.3,4.2-1.9c3.2,1,4.1,3.5,1.8,6.2
		c-3.9,4.5-8.1,8.8-12.2,13.2c-0.7,0.8-1.2,1.8-1.9,2.7c1.2-0.1,2.5,0.2,3.5-0.2c3-1.3,6.1-2.6,8.9-4.3
		C201.5,85.3,218.1,75,234.7,65c3.4-2,7.1-3.4,10.9-4.8c0.9-0.3,2.2,0.8,3.4,1.3c-0.5,1-0.7,2.3-1.5,2.9c-2.2,1.7-4.7,3.2-7,4.7
		c-16.3,10.6-32.6,21.2-48.8,32c-5.2,3.5-6.8,11.3-3.9,16.8c2.1,3.9,5.1,6.3,9.7,5c13.9-4,27.7-8,41.6-12.2c1.4-0.4,2.4-2.1,3.7-3.2
		c7.6-6.7,15-13.6,22.8-20.1c2.3-1.9,6.2-4.6,8.6-0.6c2.2,3.7-2.5,4.7-4.5,6.4c-6.1,5.4-12.5,10.5-18.4,16.1c-1.6,1.5-1.7,4.6-2.5,7
		c2.6,0.6,5.5,2.3,7.7,1.7c14.2-4.1,28-9.4,40-18.3c5.6-4.2,11.1-8.5,16.8-12.5c2.9-2,6.3-3.8,9.3,0c2.3,2.8,1,8.5-2.5,11.1
		c-1.7,1.3-3.7,2.2-5.7,3.1c-7,3-11.1,8.8-15.1,14.8c-0.4,0.6-0.4,1.5-0.6,2.2c0.7-0.1,1.6,0,2.2-0.3c17.9-7.2,35.7-14.3,53.6-21.6
		c1.8-0.7,3.2-2.3,4.8-3.5c4.2-2.9,8.4-6,12.8-8.7c0.9-0.6,2.6,0.1,3.9,0.2c-0.1,1.4,0.2,3.2-0.5,4.1c-2.1,2.5-4.7,4.7-7.1,7
		c-5,4.6-10.2,9.1-15,13.9c-1.4,1.4-1.7,3.7-2.5,5.6c1.9,0.7,3.8,2,5.8,2c11.5,0.5,22.2-2.9,31.7-9c8.5-5.5,16.3-12,24.7-17.8
		c2.2-1.5,5.2-1.8,7.8-2.7c-0.4,3.3,0.4,7.5-1.3,9.6c-3.1,3.9-7.9,6.4-11.7,9.9c-1.9,1.7-3.2,4.2-4.8,6.3c2.7,1.2,5.7,3.9,8,3.4
		c9.2-1.9,18.3-4.7,27.3-7.3c1.1-0.3,1.8-1.9,2.8-2.7c8.6-7.3,17.2-14.6,26.1-21.6c1.3-1,3.8-0.6,5.7-0.9c-0.7,2-0.8,4.6-2.1,5.9
		c-3.9,4.1-8.4,7.6-12.5,11.5c-3.1,2.8-6.1,5.7-8.9,8.8c-1,1.1-2,3.5-1.4,4.3c0.8,1.2,2.9,2.1,4.5,2.2c10.8,0.7,20.9-2.1,30.1-7.4
		c6.8-3.9,12.9-8.7,19.3-13.2c3.5-2.5,6.8-5.4,10.5-7.7c1.4-0.9,3.6-0.8,5.4-1.1c0.3,1.9,1.4,4.2,0.7,5.6c-1.7,3.3-4,6.4-6.6,9
		c-2.6,2.5-6.1,4-8.9,6.3c-1.3,1.1-3,3.7-2.6,4.7c0.7,1.6,3,3.2,4.8,3.5c2.7,0.5,5.7,0.3,8.4-0.4c6.6-1.7,13.1-3.8,19.6-5.8
		c2.7-0.8,5.2-2.3,7.9-2.9c1.8-0.4,3.9,0.1,5.9,0.2c-1.2,1.4-2.1,3.5-3.6,4.2c-12.3,5.9-24.8,11.9-38.9,10.9
		c-4.7-0.3-9.5-2.7-13.6-5.2c-2.6-1.6-4.2-1.9-6.6-0.5c-10.7,6.2-22.5,7.7-34.7,7.6c-4.6,0-8.7-1.6-11-5.7c-1.5-2.7-2.8-2.3-5.1-1.5
		c-8.6,3-17.3,6.8-26.6,5.3c-4.4-0.7-8.8-2.6-12.7-4.9c-2.6-1.6-4.3-2.3-7-0.7c-10.7,6.2-22.5,8-34.7,7.4c-3.3-0.2-7-2-9.7-4.1
		c-2.8-2.2-3.8-5.8-1.8-9.5c0.5-0.9,0.4-2,0.6-3c-1.1,0.2-2.2,0.3-3.3,0.7c-20.4,7.5-39.9,16.8-55.4,32.6c-1.5,1.5-3.1,3.1-4.6,4.6
		c-13.9,13.7-27.7,27.4-41.7,40.9c-3,2.9-7,4.8-10.5,7.1C224.7,194.1,223.3,194.1,222,194.1z M171.8,101.1c0-0.4,0-0.6,0-0.8
		c-0.4,0-0.8,0-1.2,0.1c0,0-0.1,0.5,0,0.5C171,101,171.4,101.1,171.8,101.1z"/>
	<path fill="#400606" d="M0,105.1c3.4-3.6,6.7-7.5,10.4-10.8c1-0.9,3.3-0.2,5-0.2c-0.5,1.4-0.7,3.2-1.6,4.3c-2.4,2.9-3.9,6-1.8,9.6
		c2.3,3.9,6.4,4.5,10.1,3.8c6.1-1.3,12.3-3.1,18-5.4c21.9-9.1,42.6-20.4,60.3-36.4c1.1-1,1.9-2.2,2.8-3.3c-1.4-0.4-2.8-0.9-4.2-1.3
		c-2.6-0.7-5.2-1.2-7.7-2.2c-1.1-0.4-1.8-1.6-2.7-2.5c1-1,1.8-2.7,3-2.9c3.4-0.6,7-1.4,10.4-0.9c7.6,1.3,12.9-1.7,18.4-6.8
		c15.9-14.9,32.4-29.2,48.8-43.5c4-3.5,8.2-7.6,14.5-6.3c2.6,3.8,2,7.4-0.6,11c-10.4,14.4-20.6,29-31.3,43.3c-2.8,3.8-2.2,4.7,2,5.2
		c2.1,0.2,4.3,0.8,6.3,1.4c2.7,0.8,5.2,2,4.4,5.5c-0.7,3.5-3.2,4.5-6.4,4c-3.3-0.5-6.6-1-9.8-1.9c-5-1.5-8.4-0.2-11.5,4.1
		c-9.9,14-20,27.8-30,41.7c-1.9,2.7-3.5,5.9-6,7.9c-1.6,1.3-4.6,0.8-7,1.1c0-2-0.9-4.7,0-6.1c7.4-11.1,15.1-21.9,22.8-32.8
		c3.3-4.6,6.6-9.2,10.2-13.6c2-2.5,1.1-2.8-1.5-3.4c-6.2-1.4-10.9-0.5-15.8,4.6c-19.8,20.3-43.9,34.3-70,45
		c-5,2.1-10.5,3.2-15.8,4.2c-9.7,1.7-18-0.8-24-9.2C0,109.8,0,107.5,0,105.1z M133.3,58.2c0.2,0.3,0.4,0.5,0.6,0.8
		c1.8-1,4.2-1.6,5.3-3.1c8-10.2,15.7-20.5,23.5-30.9c0.6-0.8,0.9-1.9,1.3-2.9c-1,0.4-2.1,0.7-2.9,1.4c-10.3,8.9-20.5,17.9-30.7,26.9
		c-2.2,1.9-4,4.2-5.9,6.4C127.5,57.3,130.4,57.8,133.3,58.2z"/>
</g>
</svg>
