<?xml version="1.0" encoding="utf-8"?>
<!-- Generator: Adobe Illustrator 17.1.0, SVG Export Plug-In . SVG Version: 6.00 Build 0)  -->
<!DOCTYPE svg PUBLIC "-//W3C//DTD SVG 1.1//EN" "http://www.w3.org/Graphics/SVG/1.1/DTD/svg11.dtd">
<svg version="1.1" id="Layer_1" xmlns="http://www.w3.org/2000/svg" xmlns:xlink="http://www.w3.org/1999/xlink" x="0px" y="0px"
	 viewBox="0 0 453 223" enable-background="new 0 0 453 223" xml:space="preserve">
<g>
	<path fill="#FE0808" d="M453,88c-3.7,2.1-7.2,4.6-11.2,6.1c-4.5,1.6-9.3,2.1-14,3.2c-8.2,1.9-16.5,3.6-24.6,5.9
		c-6.6,1.9-13.4,2.6-19.8,4.5c-15.4,4.6-31.1,7.7-46.8,11.4c-11.3,2.6-22.4,5.8-33.7,8.6c-6.9,1.7-13.9,2.9-20.8,4.3
		c0,0.4,0.1,0.7,0.1,1.1c1.4,0,2.9,0.2,4.3,0c13-1.8,25.9-3.8,38.9-5.5c12.2-1.7,24.4-3.1,36.5-4.7c14.6-2,29.2-4.1,43.8-6
		c3.1-0.4,6.3-0.2,9.4,0c3.1,0.2,6.1,2.7,6.2,4.8c0.2,2.2-2.6,5.6-5.6,6.2c-6.7,1.3-13.4,2.6-20.1,3.4c-14.5,1.8-29,3.3-43.5,5.2
		c-18.6,2.4-37.1,5.1-55.8,7.4c-19.3,2.3-38.6,4.1-57.9,6.3c-6.9,0.8-13.8,2.1-20.7,2.9c-8.9,1.1-17.8,1.9-26.7,2.9
		c-14.3,1.6-28.4,4.4-42.4,8c-10.1,2.6-20.4,4.2-30.5,6.5c-5.6,1.2-11.2,3-16.8,4.3c-14,3.4-28,6.8-42,10.1
		c-4.7,1.1-9.5,1.8-14.2,2.6c-0.8,0.1-1.7,0.2-2.5,0c-0.8-0.2-1.6-0.8-2.4-1.3c0.4-0.6,0.7-1.5,1.4-1.9c2-1.1,4-2.4,6.2-3
		c8-2.2,16-4.3,24-6.3c8.3-2.1,16.7-4,25.1-6.1c0.5-0.1,0.9-0.3,1.3-0.5c-0.5-0.2-1.1-0.5-1.6-0.6c-1-0.1-1.9-0.2-2.9-0.1
		c-8.9,1-17.8,1.9-26.7,3c-8.6,1-17.1,2.3-25.7,3.3c-9.4,1.1-18.8,1.9-28.2,3c-4.4,0.5-8.8,1.9-13.2,0c0-1,0-2,0-3
		c9.7-2.9,19.7-4.2,29.8-5.3c8.9-0.9,17.7-2.5,26.6-3.7c9.5-1.3,19.1-2.6,28.6-3.9c17.4-2.5,34.7-5.2,52.1-7.7
		c13.1-1.9,26.3-3.5,39.5-5.3c2.9-0.4,5.8-1.2,8.7-1.9c13.2-3.3,26.3-6.6,39.5-10c9.6-2.5,19.1-5.2,28.8-7.7
		c10.3-2.6,20.6-5.1,30.8-7.6c3.2-0.8,6.4-1.8,9.6-2.7c13.9-3.6,27.9-7.2,41.8-10.7c12.5-3.2,25-6.2,37.5-9.4
		c5.3-1.4,10.4-2.9,16-3.5c4.2-0.4,8.2-2.5,12.3-3.6c12.8-3.2,25.6-6.3,38.3-9.4c1.3-0.3,2.6-0.4,3.9-0.6c3.9-0.5,7.1,0.6,9.3,4
		C453,86,453,87,453,88z"/>
	<path fill="#FE0707" d="M241,0c5.6,1.6,11.2,3.4,16.9,4.9c10.7,2.8,21.5,5.4,32.2,8.3c10.1,2.7,20.1,5.6,30,8.7
		c7.4,2.3,14.8,4.8,22.1,7.4c7.6,2.7,15.3,5.5,22.8,8.5c6,2.4,11.8,5.1,17.6,7.9c4.2,2,8.3,4,12.2,6.4c1.3,0.8,2.5,2.7,2.8,4.3
		c0.9,4.6,0.5,9-2.3,13.4c-3.5,5.6-6.3,11.6-9.4,17.5c-1.4,2.8-7.4,5.4-10.1,4.1c-0.3-0.1-0.4-1.1-0.3-1.5c0.4-1.3,0.9-2.5,1.6-3.6
		c3.3-5.7,6.2-11.7,10.1-17c3.9-5.3,0.6-12.1-3.8-15.1c-3.8-2.6-8.2-4.3-12.4-6.2c-5.8-2.5-11.6-4.9-17.4-7.1
		c-8.4-3.2-16.7-6.2-25.2-9.2c-7.8-2.7-15.7-5.3-23.6-7.6c-10-2.9-20.1-5.6-30.2-8.2c-7.4-1.9-14.8-3.5-22.3-5
		c-2.8-0.6-5.6-0.7-8.4-0.9c-9.8-0.6-18.1,3.5-25.8,8.9c-6.5,4.6-13.1,8.9-19.6,13.4c-6.1,4.3-12.2,8.7-18.1,13.1
		c-5.8,4.3-11.4,8.8-17.1,13.3c-5.8,4.6-11.5,9.3-17.2,14.1c-6.8,5.8-13.7,11.5-20.2,17.6c-8.8,8.3-17.3,17-25.8,25.6
		c-3.2,3.3-6,7-8.9,10.6c-4.9,6.2-5.1,17.1,5,22.3c2.4,1.3,4.5,3.2,6.7,4.8c-2.5,0.7-4.9,1.4-7.4,2.1c-9.4,2.5-15.6-3.1-21.9-8.5
		c-0.6-0.5-0.9-1.4-1-2.2c-1.4-6.8-1.6-13.5,1.7-19.9c3-5.8,7.2-10.6,11.8-15.1c6.3-6.2,12.3-12.7,19-18.5
		c7.5-6.5,15.6-12.2,23.4-18.3c8.2-6.4,16.3-13,24.5-19.4c5.4-4.1,11-8,16.5-11.9c6.6-4.7,13-9.5,19.7-14.1
		c6.7-4.5,13.5-8.7,20.3-13.1c3.2-2,6.5-4,9.5-6.2c5.1-3.6,10.6-6,16.6-7.5c0.5-0.1,0.9-0.8,1.3-1.2C238.3,0,239.7,0,241,0z"/>
	<path fill="#FE0808" d="M270,223c-0.3-0.4-0.5-1-0.9-1c-6.3-1.4-12.7-2.5-19-4.2c-9.4-2.5-18.8-5.4-28.1-8.3
		c-8.2-2.6-16.4-5.3-24.5-8.2c-7.9-2.8-15.8-5.9-23.6-8.9c-6.2-2.3-12.4-4.5-18.6-7c-8.4-3.3-16.8-6.8-25.2-10.3
		c-0.4-0.2-0.9-0.7-0.8-1c0-0.3,0.5-0.9,0.9-0.9c5-0.9,9.6-2.6,15-0.3c9.8,4.3,20,7.9,30.2,11.4c12.8,4.4,25.7,8.5,38.7,12.6
		c8,2.6,16.1,5.2,24.3,7.2c10,2.5,20,5.1,30.2,6.4c12.4,1.5,23.3-3.3,31.9-12.2c7-7.3,13.6-14.9,19.8-22.8
		c6.5-8.3,12.5-17,18.6-25.6c2.1-2.9,4.1-6,6.5-8.7c0.8-0.9,2.6-0.9,4-1.3c0,1.2,0.5,2.7,0,3.7c-1.8,3.5-3.7,7-5.8,10.3
		c-5.2,8.2-10.1,16.7-16.1,24.4c-3.8,4.9-7.1,10.1-12.1,14.3c-6.6,5.6-12.4,12.3-18.1,18.9c-5.7,6.6-12.2,11.1-21.3,10.8
		c-0.3,0-0.6,0.6-1,0.9C273.3,223,271.7,223,270,223z"/>
	<path fill="#FE0B0B" d="M230.6,80.1c-0.8,1.5-1.8,2.8-2.2,4.4c-0.6,2.2-0.1,4.1,2.4,5.4c3.5,1.8,7.1,3.6,10.3,5.9
		c1.4,1,2.8,3.1,3,4.8c0.7,7.3,0.3,14.6-5.8,19.7c-3.2,2.7-7.2,4.5-10.9,6.6c-0.2,0.1-0.9-0.2-1.2-0.4c-0.1-0.1,0-0.7,0.2-0.9
		c1.3-1.2,2.8-2.3,4-3.6c2.5-2.8,5.6-5.3,7.1-8.6c4-8.5,0.5-13.6-7.3-16.9c-1.5-0.6-3.1-1.1-4.5-2c-4.1-2.6-5-5.9-2.9-10.3
		c2-4.1,4.7-7.9,5.3-12.8c0.7-5.7,0.3-6.6-5.2-8c-2.6-0.7-5.2-1.2-7.6-2.3c-4.1-1.8-5.3-4.9-3.4-8.8c2.8-5.7,6.8-10.5,12.2-14
		c10.7-6.9,22.6-8.4,34.9-6.6c4.8,0.7,8.8,3,12.3,6.2c3.1,2.9,3.7,6.7,2.5,10.6c-1.4,4.6-2.6,9.4-4.9,13.5c-3.2,5.5-1,9.1,2.6,12.7
		c4,4,4.4,8.7,3.2,13.9c-0.2,0.8-0.5,1.6-1,2.2c-0.5,0.6-1.3,0.9-2,1.3c-0.1-0.7-0.6-1.5-0.4-2.1c1.4-5-0.7-8.7-4.1-12
		c-1.3-1.3-2.6-2.6-3.7-4c-2.6-3.1-2.8-6.6-1.3-10.3c1.5-3.9,2.9-7.8,4.1-11.7c1.9-6.5-1.6-12.6-8.2-13.3c-8.6-1-17.3-1.2-25.2,3.3
		c-1.1,0.4-2.3,0.5-3.2,1.2c-3.1,2.2-7.1,3.8-8.1,8c-0.2,0.8,0.2,1.8,0.3,2.7c0.7-0.4,1.6-0.6,2-1.1c2.9-3.9,7.3-5.9,10.9-9
		c5.4-1.9,11-2.4,16.7-1.7c5.2,0.6,8.3,4,8.7,9.2c0.4,6.2-0.2,12.3-3.5,17.8c-0.5,0.8-0.9,1.8-1.3,2.7c-2.4,6.6-0.7,9.4,3.5,12.5
		c7.9,5.7,9.5,12.5,6.2,22c-0.6,1.7-1.8,3.2-2.9,4.6c-0.4,0.5-1.5,0.3-2.3,0.5c0-0.7-0.3-1.5-0.1-2.1c0.3-1.1,0.9-2.1,1.3-3.2
		c2.2-5.6,1-10.8-3.2-15c-2.6-2.6-5.1-5.2-7.3-8.1c-3.5-4.6-1.6-9.5,0-14.2c1-3,2-6,2.5-9c2-12.1-6.3-12.6-14.6-10.3
		c-1.2,0.3-2.2,1.2-4.3,2.4c2.2,0.3,3.3,0.3,4.4,0.5c5.6,1.1,9,5.9,7.4,11.3c-1.2,4.2-3.1,8.3-5.2,12.2c-1.9,3.6-1.3,6.2,3.5,8
		c3.3,1.3,5.7,3.3,7.9,5.8c0.3,0.4,0.7,0.7,1,1.1c3.3,5.3,1.8,20.1-2.6,24.5c-0.4,0.4-1.1,0.6-1.6,0.8c0-0.6-0.3-1.3-0.1-1.9
		c0.3-1.3,0.8-2.5,1.3-3.7c2.3-6,2-12-1.3-17.2c-1.5-2.4-4.8-3.8-7.4-5.5c-1.4-0.9-2.9-1.6-4.4-2.2c-2.4-0.9-3.8-2.6-4.1-5.1
		c0.7-1.8,1.4-3.7,2.2-5.5c1.5-3.8,3.3-7.6,4.6-11.5c1.1-3.1-0.1-5.2-3.3-6c-1.7-0.4-3.6-0.4-5.4-0.4c-0.6,0-1.2,0.3-1.8,0.5
		c0.3,0.5,0.5,1.2,1,1.5c3.1,2.8,4.3,6.4,3.7,10.4C232.7,72.8,231.5,76.4,230.6,80.1z"/>
	<path fill="#FE0606" d="M314.1,64.8c-1.4,0.4-3,0.4-4.2,1.1c-3.4,2.1-7.1,2.7-11,2.2c-7.4-1-14.3-3.2-18.9-9.7
		c-3.6-5.1-2.6-8.4,2.5-11.9c13.6-9.4,27.9-9.4,42.6-3.5c5.2,2.1,9.3,6.1,13.2,10.2c0.3,0.3,0.7,0.8,0.7,1.3
		c0.1,2.9,0.8,4.1,3.4,1.6c1.6-1.5,2.3-0.5,2.5,1.1c0.9,8.4,0.7,13-8.1,18.5c-6.5,4.1-13.7,4.6-20.9,5.2c-1.6,0.1-3.3-0.3-4.9-0.9
		c-4.7-1.7-5.8-7.6-1.9-10.8c1.5-1.3,3.3-2.2,4.9-3.3c0.6-0.1,1.5,0,1.8-0.4c0.4-0.5,0.4-1.3,0.6-2c-0.5,0.3-1,0.6-1.5,0.8
		C314.7,64.6,314.4,64.7,314.1,64.8z M314.7,46.1c0,0.4,0.1,0.8,0.1,1.2c1-0.4,2-0.7,2.9-1.1c-0.9-0.6-1.6-1.5-2.6-1.8
		c-7.5-2.2-15-2.1-22.5,0.2c-0.6,0.2-1.1,1-1.6,1.5c0.6,0.3,1.3,1,1.9,0.9c2.5-0.2,4.9-0.8,7.3-0.8C305.1,46,309.9,46.1,314.7,46.1z
		 M335.6,59.3c-6-1.1-11.2,0.1-16.2,2.6c-0.5,0.3-0.8,0.8-1.2,1.3c0.5,0.3,1,0.9,1.4,0.8C325,63.1,330.8,63.5,335.6,59.3z"/>
	<path fill="#FE0606" d="M178.2,104c-5-1-11.7-2.2-18.2-3.9c-5.3-1.4-6.5-6.1-3.8-10.8c2.5-4.5,6.8-6.7,10.7-9.2
		c7.9-5.1,16.9-7.3,26.2-8.4c5.6-0.7,10.9-0.5,16.2,1.5c5.7,2.2,7.3,6.5,4.5,11.9C206.5,98.7,194.2,103,178.2,104z M182,79
		c-3.7,0.6-7.5,1-10,4.8c1,0.1,1.7,0.3,2.3,0.1c2.9-1,5.8-2.2,8.7-3.3c6-1.3,11.9-2.5,17.9-3.8c-0.1-0.4-0.1-0.8-0.2-1.2
		C194.2,75.2,187.9,75.5,182,79z"/>
	<path fill="#FE0606" d="M173,121.9c-5.3,0.2-10.5,1.6-15.8,0.2c-6.1-1.6-10-5.5-10-11.8c0-4.4,0.7-8.9,1.3-13.3
		c0.2-1.8,1.3-2.3,2.4-0.5c4.8,7.4,12.4,8.7,20.3,9.3c4.1,0.3,8.3,0.4,12.5,0.4c1.9,0,2.6,0.7,1.4,2.2c-1.5,1.9-0.3,2.3,1.2,2.5
		c0.8,0.1,1.7-0.1,2.5,0c1,0.1,2,0.2,2.8,0.7c4.7,2.9,4.8,13.4,0.2,16.5c-10.5,7.1-21.1,6.6-31.9,0.8c0-0.4,0-0.8,0-1.2
		c4.7-0.9,9.4-1.6,13.3-4.6c0.5-0.4,1-0.8,1.5-1.3C174.2,121.8,173.6,121.8,173,121.9z M181.2,117.3c-1.4,0.3-2.2,0.5-3,0.6
		c-1.6,0.2-2.6,0.8-1.8,2.6c0.2,0.4,1,0.9,1,0.9C178.5,120.2,179.6,119,181.2,117.3z M185.2,114c-0.6-0.2-1.1-0.5-1.2-0.4
		c-0.5,0.4-1,1-1.2,1.6c-0.1,0.3,0.4,0.8,0.7,1.1C183.9,115.7,184.4,115,185.2,114z"/>
	<path fill="#FE0A0A" d="M147.8,147.3c-1-0.1-1.6,0-2-0.2c-9.5-2.8-19.3-5-27.5-11.1c-5.3-3.9-7.1-9-4.6-13.2
		c1.1-1.8,2.4-3.6,3.9-5.2c8-9,16.8-17.2,26.1-24.8c1.4-1.2,3.3-1.7,5-2.6c-1.1,1.7-1.9,3.6-3.2,5.1c-4,4.6-8.4,8.8-12.3,13.5
		c-3.3,4.1-6.1,8.6-9,13c-2.6,3.9-1.8,8.3,2.6,10.4c8.2,3.9,16.6,7.3,24.9,10.9c0.8,0.3,1.7,0.4,2.3,0.8c0.3,0.2,0.2,1.6,0,1.6
		C151.8,146.3,149.5,146.9,147.8,147.3z"/>
	<path fill="#FE0606" d="M317.8,96.6c-2-0.1-4-0.1-6-0.3c-3.3-0.4-3.8-1.5-2.4-4.6c0.9-1.9,1.8-3.9,2.7-5.8c1.4-3,4.1-3.2,6.8-3.1
		c5.8,0.1,11.3-0.8,16.4-3.4c2.6-1.3,5-3.2,7.5-4.8c0.5-0.3,1.2-0.3,1.8-0.5c0.1,0.6,0.6,1.3,0.4,1.8c-1,2.8-1.8,5.7-3.4,8.2
		C336.2,92.9,328,96.8,317.8,96.6z"/>
	<path fill="#FE0909" d="M293.5,95.4c2.8,0,5.8,0.6,8.4-0.1c3.8-1,6,1.6,8.8,2.9c0.3,0.1,0.5,1.6,0.2,2c-2.9,2.9-5.7,5.8-10.4,6.1
		c-7.3,0.4-13.7-2-19.6-5.9c-0.5-0.3-0.9-1-1.2-1.5c-0.5-1-0.9-2.1-1.3-3.1c1-0.3,2.1-0.8,3.1-0.8c4,0.1,8,0.4,11.9,0.7
		C293.5,95.5,293.5,95.4,293.5,95.4z"/>
	<path fill="#FE0C0C" d="M374.4,72.3c-1.4,3.1-2.7,7.2-5,10.8c-3,4.9-6.6,9.5-10.2,13.9c-1.2,1.5-3.4,2.3-5.3,3.1
		c-0.7,0.3-2.1-0.2-1.1-1.7c0.9-1.4,1.8-2.8,2.8-4.1c4.5-5.9,8.3-12.3,11.1-19.2c2-4.9,1.4-8.5-2.6-12c-1.7-1.5-3.6-2.8-5.4-4.3
		c-0.3-0.3-0.5-1-0.4-1.3c0.1-0.3,0.8-0.6,1.2-0.6c4.7,0.4,13.2,7.2,14.6,11.8C374.2,69.6,374.1,70.5,374.4,72.3z"/>
	<path fill="#FEDEDE" d="M230.6,80.1c0.9-3.6,2-7.3,2.6-10.9c0.6-4-0.5-7.6-3.7-10.4c-0.4-0.4-0.6-1-1-1.5c0.6-0.2,1.2-0.6,1.8-0.5
		c1.8,0,3.7,0,5.4,0.4c3.1,0.8,4.3,2.9,3.3,6c-1.3,3.9-3.1,7.6-4.6,11.5c-0.7,1.8-1.4,3.7-2.2,5.5C231.8,80.1,231.2,80.1,230.6,80.1
		z"/>
	<path fill="#FEC5C5" d="M234.5,43.5c-3.5,3.1-8,5.1-10.9,9c-0.4,0.6-1.3,0.8-2,1.1c-0.1-0.9-0.5-1.9-0.3-2.7c1.1-4.3,5-5.8,8.1-8
		c0.9-0.6,2.1-0.8,3.2-1.2C233.4,42.3,233.9,42.9,234.5,43.5z"/>
	<path fill="#FEDCDC" d="M314.1,64.8c0.3-0.1,0.6-0.2,0.9-0.4c0.5-0.3,1-0.6,1.5-0.8c-0.2,0.7-0.1,1.5-0.6,2
		c-0.3,0.4-1.2,0.3-1.8,0.4C314,65.6,314,65.2,314.1,64.8z"/>
	<path fill="#FE0909" d="M173,121.9c0.6-0.1,1.1-0.1,1.7-0.2c-0.5,0.4-1,0.8-1.5,1.3C173.2,122.6,173.1,122.3,173,121.9z"/>
	<path fill="#FE0909" d="M160,127.6c0,0.4,0,0.8,0,1.2c-0.2-0.1-0.4-0.2-0.7-0.4C159.5,128.2,159.8,127.9,160,127.6z"/>
	<path fill="#FE0808" d="M217.5,166.6c8.4,0.7,16.6-0.6,24.5-3c4.6-1.4,9.1-3.9,11.4-8.9c0.4-0.8,1.6-1.7,2.5-1.9
		c5.3-0.7,10.6-1.2,15.9-1.7c0.6-0.1,1.3,0.2,1.9,0.3c-0.2,0.7-0.3,1.6-0.7,2.2c-6.2,9.4-15.1,14.5-26,16.6
		c-3.1,0.6-6.2,1.2-9.2,1.9c-0.5,0.1-0.9,0.8-1.4,1.2c0.5,0.3,0.9,0.7,1.4,0.8c10.2,0.6,20.4,0.4,29.4-5.4c4.6-3,8.5-7.2,10.3-12.4
		c2-6.1,6.3-7.1,11.6-7.4c6-0.4,11.9-1.1,17.9-1.6c1.3-0.1,2.6,0.1,3.9,0.1c-0.8,0.9-1.5,2-2.4,2.8c-8.7,7.5-17.2,15.5-26.4,22.3
		c-6.2,4.6-13.6,7.4-21.7,7.8c-10.9,0.5-21.6-0.5-32.1-3.6c-9.1-2.6-18.2-4.9-27.3-7.5c-6.1-1.8-12.1-1.8-18.3-0.5
		c-2.9,0.6-5.9,0.9-8.9,1.2c-0.5,0.1-1.1-0.3-1.5-0.7c-0.1-0.1,0.2-1,0.5-1.3c1.3-1,2.6-2.2,4-2.8c8.6-3.8,17.5-6.1,27.1-5.9
		c3.5,0.1,7,0.1,10.5-0.4c3.6-0.5,7.6-0.8,10.5-2.6c5.6-3.6,11.6-2.2,17.4-2.9c0.5-0.1,1,0.5,1.5,0.7c-0.4,0.5-0.6,1.2-1.1,1.4
		c-2.5,1.3-5,2.7-7.6,3.7c-5.7,2.3-11.4,4.3-17.1,6.5C217.8,165.7,217.7,166.1,217.5,166.6z"/>
	<path fill="#FE0D0D" d="M266,194.5c-0.7-0.1-2.6,0-4.3-0.5c-8.5-2.2-17-4.5-25.4-7c-4.4-1.3-8.8-2.8-13.2-4.4
		c-0.8-0.3-1.3-1.3-1.9-1.9c0.9-0.2,1.8-0.5,2.7-0.5c1.1,0.1,2.4,0.2,3.4,0.7c10.2,4.3,21.2,5.3,31.9,7.4c8.3,1.6,15.7-1.2,22.4-5.8
		c12.5-8.4,22.4-19.4,31.6-31.2c1.7-2.2,3.6-4.3,5.4-6.5c2.5-3.1,6.2-1.7,9.3-2.5c0.1,0,0.9,1,0.8,1.3c-0.6,1.2-1.3,2.3-2.2,3.3
		c-4.8,5.6-9.5,11.2-14.5,16.6c-3.7,4-7.6,7.9-11.6,11.5c-5.1,4.6-10.2,9.2-15.7,13.4C279.7,192.4,273.8,194.7,266,194.5z"/>
	<path fill="#FEE8E8" d="M314.7,46.1c-4.8,0-9.6-0.1-14.4,0c-2.5,0.1-4.9,0.7-7.3,0.8c-0.6,0-1.3-0.6-1.9-0.9c0.5-0.5,1-1.3,1.6-1.5
		c7.5-2.3,15-2.3,22.5-0.2c1,0.3,1.7,1.2,2.6,1.8c-1,0.4-2,0.7-2.9,1.1C314.8,46.9,314.8,46.5,314.7,46.1z"/>
	<path fill="#FEDCDC" d="M335.6,59.3c-4.8,4.2-10.6,3.8-16,4.7c-0.4,0.1-1-0.5-1.4-0.8c0.4-0.4,0.7-1,1.2-1.3
		C324.3,59.4,329.6,58.1,335.6,59.3z"/>
	<path fill="#FED5D5" d="M182,79c5.9-3.5,12.2-3.8,18.6-3.4c0.1,0.4,0.1,0.8,0.2,1.2c-6,1.3-11.9,2.5-17.9,3.8
		C182.6,80.1,182.3,79.6,182,79z"/>
	<path fill="#FED0D0" d="M182,79c0.3,0.5,0.6,1.1,0.9,1.6c-2.9,1.1-5.8,2.3-8.7,3.3c-0.6,0.2-1.3-0.1-2.3-0.1
		C174.5,80,178.3,79.6,182,79z"/>
	<path fill="#FE0909" d="M181.2,117.3c-1.6,1.7-2.7,2.9-3.8,4.1c0,0-0.8-0.5-1-0.9c-0.7-1.8,0.3-2.4,1.8-2.6
		C179,117.8,179.8,117.6,181.2,117.3z"/>
	<path fill="#FE0909" d="M185.2,114c-0.7,0.9-1.2,1.6-1.8,2.3c-0.2-0.4-0.8-0.9-0.7-1.1c0.2-0.6,0.7-1.1,1.2-1.6
		C184.1,113.5,184.6,113.8,185.2,114z"/>
</g>
</svg>
