<?xml version="1.0" encoding="utf-8"?>
<!-- Generator: Adobe Illustrator 17.1.0, SVG Export Plug-In . SVG Version: 6.00 Build 0)  -->
<!DOCTYPE svg PUBLIC "-//W3C//DTD SVG 1.1//EN" "http://www.w3.org/Graphics/SVG/1.1/DTD/svg11.dtd">
<svg version="1.1" id="Layer_1" xmlns="http://www.w3.org/2000/svg" xmlns:xlink="http://www.w3.org/1999/xlink" x="0px" y="0px"
	 viewBox="0 0 22.6 248" enable-background="new 0 0 22.6 248" xml:space="preserve">
<g>
	<path fill="#351111" d="M0.5,208.4c1.1,0,2.2,1,3.2,2.9c1,1.8,1.5,4.6,1.5,8.3c0,1.8-0.2,3.8-0.7,6c-0.5,2.2-0.7,4-0.7,5.3
		c0,5.1,1.6,8.3,4.7,9.5c0.5,0.2,1.1,0.3,1.6,0.5c0.6,0.2,0.9,0.4,0.9,0.6c0,0.5-0.3,0.7-1,0.7c-2.4,0-4.4-1.1-5.8-3.3
		c-1.2-2-1.9-4.4-1.9-7.2c0-2.1,0.3-4.4,0.8-6.9c0.5-2.5,0.8-4.3,0.8-5.5c0-2.7-0.2-4.6-0.5-5.7c-0.6-0.5-1.4-1.3-2.4-2.4
		c-0.7-0.8-1.1-1.4-1.1-1.8c0-0.2,0.1-0.5,0.2-0.8C0.3,208.5,0.4,208.4,0.5,208.4z M8.4,230.5c0.5,0,3.4,2.8,8.5,8.3
		c1.8,1.9,3,3.3,3.7,4.2c1.1,1.6,1.7,2.9,1.7,4c0,0.2-0.2,0.4-0.5,0.7c-0.3,0.3-0.6,0.4-0.9,0.4c-0.4,0-0.9-0.2-1.7-0.6
		c-0.9-0.4-1.3-0.9-1.3-1.3c0-0.4,0.1-0.6,0.4-0.6c0.1,0,0.4,0.2,0.9,0.5c0.5,0.3,0.8,0.5,1,0.5c0.3,0,0.4-0.1,0.4-0.4
		c0-0.7-0.5-1.8-1.6-3.1c-0.6-0.8-1.7-1.9-3.2-3.4c-0.9-1-2.2-2.4-3.9-4.2c-2.5-2.6-3.7-4.1-3.7-4.4C8.1,230.6,8.2,230.5,8.4,230.5z
		"/>
	<path fill="#351111" d="M17.7,216.6c0.3,0,0.6,0.5,0.8,1.4c0.2,1,0.3,2,0.3,3c0,0.7-0.1,1.4-0.4,2.1c1.5,1.5,2.4,2.5,2.8,3
		c0.9,1.2,1.3,2.3,1.3,3.4c0,0.4-0.2,0.7-0.5,1c-0.3,0.3-0.6,0.4-0.9,0.4c-0.6,0-1.4-0.3-2.4-0.9c-1-0.6-1.9-1.4-2.7-2.4
		c-0.7-0.8-1.2-1.7-1.7-2.9c-0.4-0.9-0.5-1.6-0.5-2c0-0.3,0.1-0.5,0.4-0.9c0.3-0.3,0.6-0.5,1.1-0.5c0.4,0,1.1,0.2,2.1,0.7
		c0.1-0.3,0.3-0.8,0.4-1.4c0-0.5-0.1-1.2-0.2-2.1c-0.1-0.9-0.2-1.4-0.2-1.5C17.5,216.8,17.6,216.6,17.7,216.6z M18.1,224.7
		c-0.3-0.1-0.6-0.1-1,0c-0.5,0.1-0.8,0.3-0.9,0.5c0.4,0.9,0.9,1.7,1.5,2.3c1.4,1.4,2.5,2.1,3.2,2.1c0.3,0,0.5-0.1,0.5-0.3
		C21.3,228.3,20.3,226.8,18.1,224.7z"/>
	<path fill="#351111" d="M19,193c0.2,0,0.4,0.3,0.8,1s0.7,1.3,0.9,2c0.8,2.4,1.2,4.2,1.2,5.6c0,0.5-0.1,0.9-0.4,1.2
		c-0.2,0.3-0.6,0.5-1,0.5c-0.2,0-0.7-0.3-1.3-0.9c-0.5-0.5-1.1-1-1.6-1.5c0.2,1.3,0.7,2.8,1.5,4.5c1.3,2.7,1.9,4.2,1.9,4.4
		c0,0.5-0.2,0.7-0.7,0.7c-0.3,0-0.8-0.4-1.5-1.2c-0.7-0.8-1.2-1.2-1.4-1.2c-0.2,0-0.3,0.1-0.3,0.3c0,0.6,0.8,2.7,2.4,6.2
		c0.1,0.2,0.6,1.1,1.4,2.8c0.6,1.1,0.9,1.8,0.9,2.1c0,0.4-0.2,0.6-0.7,0.6c-0.4,0-1.5-1.1-3.2-3.4s-2.6-3.7-2.6-4.3
		c0-0.3,0.1-0.4,0.4-0.4c0.1,0,0.5,0.4,1.2,1.2c0.7,1,1.2,1.5,1.5,1.7c0,0-0.3-0.9-0.8-2.5c-0.1-0.3-0.5-1.3-1.1-3
		c-0.4-1.1-0.6-1.8-0.6-2.2c0-0.5,0.1-0.9,0.4-1.2s0.6-0.4,1-0.4c0.6,0.1,1,0.2,1.4,0.4c-0.4-0.8-0.9-2.1-1.6-3.9
		c-0.6-1.9-0.9-3.1-0.9-3.8c0-0.4,0.2-0.6,0.7-0.6c0.2,0,0.5,0.3,0.9,1c0.5,0.8,0.9,1.4,1.2,1.7c1,0.9,1.6,1.4,1.8,1.4
		c0.3,0,0.4-0.3,0.4-0.9c0-0.9-0.3-2.3-0.9-4.3c-0.2-0.5-0.4-1.2-0.8-2.1c-0.3-0.8-0.5-1.2-0.5-1.2C18.7,193.1,18.8,193,19,193z"/>
	<path fill="#351111" d="M17.7,180.6c0.3,0,0.6,0.5,0.8,1.4c0.2,1,0.3,2,0.3,3c0,0.7-0.1,1.4-0.4,2.1c1.5,1.5,2.4,2.5,2.8,3
		c0.9,1.2,1.3,2.3,1.3,3.4c0,0.4-0.2,0.7-0.5,1c-0.3,0.3-0.6,0.4-0.9,0.4c-0.6,0-1.4-0.3-2.4-0.9c-1-0.6-1.9-1.4-2.7-2.4
		c-0.7-0.8-1.2-1.7-1.7-2.9c-0.4-0.9-0.5-1.6-0.5-2c0-0.3,0.1-0.5,0.4-0.9c0.3-0.3,0.6-0.5,1.1-0.5c0.4,0,1.1,0.2,2.1,0.7
		c0.1-0.3,0.3-0.8,0.4-1.4c0-0.5-0.1-1.2-0.2-2.1c-0.1-0.9-0.2-1.4-0.2-1.5C17.5,180.8,17.6,180.6,17.7,180.6z M18.1,188.7
		c-0.3-0.1-0.6-0.1-1,0c-0.5,0.1-0.8,0.3-0.9,0.5c0.4,0.9,0.9,1.7,1.5,2.3c1.4,1.4,2.5,2.1,3.2,2.1c0.3,0,0.5-0.1,0.5-0.3
		C21.3,192.3,20.3,190.8,18.1,188.7z"/>
	<path fill="#351111" d="M2,156.3c0.4,0,1.2,0.6,2.4,1.9c1.4,1.5,2.8,3.2,4.1,5.2c0.9,1.3,1.9,3.3,3.1,5.9c1.6,3.7,2.6,5.8,2.8,6.1
		s0.6,0.8,1.1,1.5c0.6,0.8,1.3,1.5,1.9,2.1c1.9,1.7,3,2.6,3.4,2.6c0.3,0,0.4-0.1,0.4-0.4c0-0.5-0.3-1.3-0.9-2.3
		c-0.6-0.9-1.1-1.9-1.7-2.8c-0.3-0.3-0.8-0.8-1.4-1.5c-0.9-1.1-1.4-1.9-1.4-2.4c0-0.4,0.2-0.6,0.6-0.6c0.8,0,1.7,0.8,2.7,2.3
		c0.3-0.4,0.5-1,0.5-1.7c0-0.9-0.1-2-0.4-3c-0.3-1.1-0.4-1.7-0.4-2s0.2-0.4,0.6-0.4c0.1,0,0.4,0.8,0.8,2.4c0.4,1.6,0.6,2.8,0.6,3.7
		c0,0.7-0.3,1.7-1,2.9c0.5,1,1.1,2,1.6,2.9c0.6,1.2,0.9,2.2,0.9,3c0,0.5-0.2,0.9-0.5,1.2c-0.3,0.3-0.5,0.4-0.7,0.4
		c-0.6,0-1.4-0.3-2.2-1c-0.2-0.1-0.9-0.8-2.3-2.1c-0.6-0.6-1.3-1.3-1.9-2.1c-1.1-1.5-1.7-2.2-1.7-2.3c-1.1-1.3-2.2-2.6-3.3-3.9
		c-1.8-2.1-3.2-4-4.2-5.6c-1.9-2.8-3-4.5-3.3-5c-1.1-1.8-1.7-3.1-1.7-3.7c0-0.3,0.2-0.6,0.5-0.9C1.3,156.4,1.6,156.3,2,156.3z
		 M2,157.7c-0.2,0-0.2,0.1-0.2,0.2c0,0.8,1.6,3.4,4.7,7.8c0.7,1,2.2,2.9,4.7,5.7c-0.6-1.7-1.1-2.8-1.4-3.4c-0.6-1.4-1.3-2.6-2-3.8
		c-0.9-1.4-2-2.8-3.3-4.3C3.1,158.4,2.3,157.7,2,157.7z"/>
	<path fill="#351111" d="M19,150.9c0.4,0,0.9,1,1.6,2.9c0.6,1.6,0.8,2.7,0.8,3.5c0,0.9-0.1,1.6-0.4,2.1c-0.1,0.2-0.4,0.5-0.8,1
		c0.6,1.2,1,2.1,1.1,2.7c0.2,0.8,0.4,2,0.4,3.6c0,0.5-0.2,1-0.5,1.3c-0.3,0.4-0.7,0.6-1.2,0.6c-0.5,0-1.4-0.8-2.7-2.4
		c-1.3-1.5-2-2.6-2.2-3.1c-0.1-0.3,0.1-0.4,0.6-0.4c0.2,0,0.9,0.7,2,2.1c1.2,1.4,1.9,2.1,2.3,2.1c0.4,0,0.5-0.4,0.5-1.1
		c0-1.9-0.7-3.9-2-5.9c-0.3-0.4-0.9-1.2-1.9-2.4c-0.7-0.8-1-1.4-1-1.6c0-0.3,0.2-0.4,0.6-0.4c0.6,0,1.1,0.3,1.6,0.8
		c0.2,0.2,0.5,0.7,1,1.4c0.3,0.5,0.6,0.8,0.8,0.8c0.6,0,0.8-0.5,0.8-1.4c0-0.4-0.2-1.4-0.6-2.8c-0.1-0.3-0.3-0.9-0.6-1.7
		c-0.3-0.7-0.4-1.1-0.4-1.2C18.7,151,18.8,150.9,19,150.9z"/>
	<path fill="#351111" d="M18.4,127.6c0.3,0,0.9,1.1,1.8,3.2c1.2,2.6,1.7,4.4,1.7,5.5c0,0.7-0.1,1.3-0.4,1.8
		c-0.2,0.5-0.5,0.7-0.8,0.7c-0.2,0-0.5-0.1-0.8-0.3c-0.3-0.2-0.6-0.4-0.9-0.5c0.5,0.9,0.9,2,1.5,3.4c0.5,1.4,0.8,2.2,0.8,2.4
		c0,0.6-0.2,0.9-0.5,0.9c-0.3,0-0.6-0.2-1.2-0.6c0.7,1.2,1.3,2.3,1.6,3.3c0.6,1.8,1,3.1,1,3.9c0,0.9-0.5,1.4-1.4,1.4
		c-0.5,0-1.2-0.2-2-0.7c-0.8-0.5-1.2-0.9-1.2-1.1c0-0.5,0.2-0.7,0.6-0.7c0.4,0,0.8,0.1,1.3,0.4c0.5,0.3,0.8,0.4,0.9,0.4
		c0.3,0,0.4-0.3,0.4-0.9c0-0.3-0.2-1-0.6-2.1c-0.4-1.1-0.8-2.1-1.2-2.9c-1-2-2.3-3.9-3.8-5.6c-1.4-1.6-2-2.5-2-2.8
		c0-0.3,0.2-0.5,0.7-0.5c0.2,0,0.5,0.2,1,0.7c0.3,0.4,0.6,0.7,0.9,1.1c0.8,0.9,2.1,2.3,3.7,4.2c-0.5-1.8-1.6-4-3.2-6.6
		c-0.4-0.5-0.7-1.1-1.1-1.6c-0.5-0.8-0.7-1.3-0.7-1.5c0-0.3,0.2-0.5,0.6-0.5c0.4,0,1.2,0.9,2.5,2.7c0.3,0.5,0.8,1,1.5,1.7
		c0.6,0.6,1,1,1.2,1c0.3,0,0.5-0.4,0.5-1.2c0-1.2-0.5-2.8-1.4-4.9c-0.1-0.2-0.4-0.8-1-1.9c-0.4-0.8-0.6-1.2-0.6-1.4
		C17.9,127.8,18.1,127.6,18.4,127.6z"/>
	<path fill="#351111" d="M18,107c0.3,0,1.1,1.8,2.3,5.5c1.1,3.2,1.6,5.4,1.6,6.5c0,1.3-0.6,1.9-1.7,1.9c-1,0-2.4-1.2-4-3.7
		c-1.1-1.6-1.6-2.7-1.6-3.4c0-0.3,0.1-0.6,0.3-0.9s0.5-0.4,0.8-0.4c0.1,0,0.4,0.1,0.7,0.4c0.4,0.3,0.7,0.6,0.7,0.8
		c0.1,0.3-0.2,0.6-0.8,1c0.2,0.5,0.6,1.2,1.2,2.1c1.3,1.7,2.2,2.6,2.7,2.6c0.1,0,0.2-0.1,0.3-0.2c0.1-0.1,0.2-0.3,0.2-0.4
		c0-0.8-0.5-2.8-1.5-6c-1.1-3.3-1.6-5-1.6-5C17.6,107.3,17.7,107,18,107z"/>
	<path fill="#351111" d="M19.4,81.9c0.4,0,1,0.9,1.7,2.8s1.1,3.3,1.1,4.2c0,0.5-0.3,1-0.8,1.4c-0.5,0.4-1.1,0.6-1.6,0.6
		c-0.8,0-1.6-0.3-2.5-0.6c0.9,0.9,1.9,2.6,3,4.8c1,2.2,1.5,3.5,1.5,3.9c-0.1,0.9-0.5,1.4-1.4,1.4c-0.7,0-1.3-0.1-1.8-0.4
		c-0.6-0.4-0.9-0.8-0.7-1.4c0.1-0.4,0.3-0.5,0.6-0.3c0.2,0.1,0.6,0.3,1.1,0.4c0.3,0.1,0.5-0.1,0.5-0.6c0-0.5-1.1-2.8-3.4-6.8
		c-0.5-0.8-1-1.6-1.5-2.4c-0.6-1-0.9-1.8-0.9-2.3c0-0.1,0-0.1,0.1-0.2c0.1-0.1,0.2-0.1,0.3-0.1c0.4,0.4,1.1,1,2.1,1.9
		c1,0.8,1.9,1.2,2.8,1.2c0.3,0,0.6-0.1,0.9-0.2c0.3-0.2,0.5-0.4,0.5-0.8c0-0.3-0.3-1.4-1-3.3c-0.7-1.9-1-2.9-1-3
		C19.1,82,19.2,81.9,19.4,81.9z"/>
	<path fill="#351111" d="M17.9,63.8c0.3,0,0.6,1.1,0.7,3.2v1.4c0.6,0.7,1.2,1.4,1.9,2.1c0.7,1,1.1,2.2,1.1,3.7
		c0,0.5-0.4,1.1-1.1,1.7c0.2,0.6,0.6,1.5,1,2.8c0.2,0.7,0.4,1.9,0.7,3.5c0,0.1,0.1,0.4,0.2,0.8c0.1,0.3,0.1,0.5,0.1,0.6
		c0,0.4-0.2,0.5-0.6,0.5c-0.3,0-0.8-0.4-1.5-1.1c-0.6-0.7-1.2-1.4-1.8-2.2c-1.6-1.9-2.5-2.9-2.5-3.1c0-0.4,0.2-0.5,0.5-0.5
		c0.2,0,0.5,0.3,1,0.8s0.9,1.1,1.3,1.6c1,1.1,1.8,1.9,2.3,2.6c-0.1-0.9-0.3-1.8-0.5-2.7c-0.3-1-0.7-2.2-1.3-3.5
		c-0.4-0.3-1.1-1-2-2.1c-1.8-2.3-2.7-4.2-2.7-5.7c0-0.3,0.1-0.5,0.3-0.8c0.2-0.2,0.5-0.4,0.8-0.4c0.6,0,1.1,0.2,1.6,0.5
		c0.1-0.3,0.1-0.5,0.1-0.8c0-0.4-0.1-0.8-0.2-1.3s-0.2-0.8-0.2-0.9C17.1,64,17.4,63.8,17.9,63.8z M18.4,70c-0.2,0.5-0.3,0.8-0.5,0.9
		L17,71.4c0.3,0.5,0.8,1,1.4,1.8c0.8,0.8,1.3,1.2,1.6,1.2c0.2,0,0.4-0.3,0.5-0.9c0.1-0.4-0.1-1.1-0.6-1.9S18.8,70.2,18.4,70z"/>
	<path fill="#351111" d="M1.8,31c0.5,0,0.9,0.4,1.4,1.3C3.5,33,3.8,33.9,4,34.8c0.2,1.3,0.5,2.7,0.7,4.3c0.3,2.7,0.5,4.2,0.6,4.4
		c0.1,1,0.4,2.5,0.6,4.6c0.7,0.6,1.6,1.3,2.9,2.2c1.5,1.1,2.7,1.9,3.6,2.6c2.9,2.2,5.5,4.7,7.8,7.5c1.3,1.6,2,3,2,4.3
		c0,0.5-0.2,0.9-0.5,1.2c-0.3,0.3-0.7,0.4-1.1,0.4c-0.7,0-1.8-0.8-3.4-2.5c-0.7-0.7-1.3-1.5-1.8-2.4s-0.8-1.5-0.8-1.9
		c0-1,0.6-1.5,1.9-1.5c-1-1-2.7-2.4-5.1-4.3c-1.6-1.1-3.1-2.2-4.7-3.2c-1.5-1-2.2-1.8-2.2-2.1c0-0.4-0.2-2.1-0.6-5.3
		c-0.1-1.2-0.4-3-0.7-5.2c-0.1,0.2-0.2,0.3-0.4,0.5c-0.1,0-0.2,0-0.3-0.1c-0.1-0.1-0.2-0.2-0.2-0.4c0-1.8,0-2.9-0.1-3.2
		c-0.1-0.5-0.3-1-0.5-1.7c-0.2-0.5-0.2-0.9-0.2-1.1c0-0.8,0-1,0-0.7C1.5,31.1,1.6,31,1.8,31z M17.6,59.4c-0.6,0-0.9,0.2-1,0.6
		c-0.1,0.5,0.4,1.4,1.4,2.7c1,1.3,1.8,2,2.2,2c0.4,0,0.6-0.1,0.6-0.4C20.9,63.4,19.8,61.8,17.6,59.4z"/>
	<path fill="#351111" d="M17.7,40.8c0.3,0,0.6,0.5,0.8,1.4c0.2,1,0.3,2,0.3,3c0,0.7-0.1,1.4-0.4,2.1c1.5,1.5,2.4,2.5,2.8,3
		c0.9,1.2,1.3,2.3,1.3,3.4c0,0.4-0.2,0.7-0.5,1c-0.3,0.3-0.6,0.4-0.9,0.4c-0.6,0-1.4-0.3-2.4-0.9c-1-0.6-1.9-1.4-2.7-2.4
		c-0.7-0.8-1.2-1.7-1.7-2.9c-0.4-0.9-0.5-1.6-0.5-2c0-0.3,0.1-0.5,0.4-0.9c0.3-0.3,0.6-0.5,1.1-0.5c0.4,0,1.1,0.2,2.1,0.7
		c0.1-0.3,0.3-0.8,0.4-1.4c0-0.5-0.1-1.2-0.2-2.1c-0.1-0.9-0.2-1.4-0.2-1.5C17.5,41,17.6,40.8,17.7,40.8z M18.1,48.9
		c-0.3-0.1-0.6-0.1-1,0c-0.5,0.1-0.8,0.3-0.9,0.5c0.4,0.9,0.9,1.7,1.5,2.3c1.4,1.4,2.5,2.1,3.2,2.1c0.3,0,0.5-0.1,0.5-0.3
		C21.3,52.5,20.3,51,18.1,48.9z"/>
	<path fill="#351111" d="M2,16.5c0.4,0,1.2,0.6,2.4,1.9c1.4,1.5,2.8,3.2,4.1,5.2c0.9,1.3,1.9,3.3,3.1,5.9c1.6,3.7,2.6,5.8,2.8,6.1
		s0.6,0.8,1.1,1.5c0.6,0.8,1.3,1.5,1.9,2.1c1.9,1.7,3,2.6,3.4,2.6c0.3,0,0.4-0.1,0.4-0.4c0-0.5-0.3-1.3-0.9-2.3
		c-0.6-0.9-1.1-1.9-1.7-2.8c-0.3-0.3-0.8-0.8-1.4-1.5c-0.9-1.1-1.4-1.9-1.4-2.4c0-0.4,0.2-0.6,0.6-0.6c0.8,0,1.7,0.8,2.7,2.3
		c0.3-0.4,0.5-1,0.5-1.7c0-0.9-0.1-2-0.4-3c-0.3-1.1-0.4-1.7-0.4-2s0.2-0.4,0.6-0.4c0.1,0,0.4,0.8,0.8,2.4c0.4,1.6,0.6,2.8,0.6,3.7
		c0,0.7-0.3,1.7-1,2.9c0.5,1,1.1,2,1.6,2.9c0.6,1.2,0.9,2.2,0.9,3c0,0.5-0.2,0.9-0.5,1.2c-0.3,0.3-0.5,0.4-0.7,0.4
		c-0.6,0-1.4-0.3-2.2-1c-0.2-0.1-0.9-0.8-2.3-2.1c-0.6-0.6-1.3-1.3-1.9-2.1C13.6,36.8,13,36.1,13,36c-1.1-1.3-2.2-2.6-3.3-3.9
		c-1.8-2.1-3.2-4-4.2-5.6c-1.9-2.8-3-4.5-3.3-5c-1.1-1.8-1.7-3.1-1.7-3.7c0-0.3,0.2-0.6,0.5-0.9C1.3,16.6,1.6,16.5,2,16.5z M2,17.9
		c-0.2,0-0.2,0.1-0.2,0.2c0,0.8,1.6,3.4,4.7,7.8c0.7,1,2.2,2.9,4.7,5.7c-0.6-1.6-1.1-2.8-1.4-3.4c-0.6-1.4-1.3-2.6-2-3.8
		c-0.9-1.4-2-2.8-3.3-4.3C3.1,18.6,2.3,17.9,2,17.9z"/>
	<path fill="#351111" d="M11.1,16.8c0.3-0.1,1.2,1,2.8,3.1c0.6,0.8,1.6,1.7,2.9,2.8c0-0.2,0.1-0.5,0.4-0.7c0.3-0.3,0.6-0.4,1-0.5
		c0.6-0.1,1.3,0.2,2.2,1.1c1,1.1,1.6,2.4,1.6,4c0,1.2-0.5,1.9-1.4,2.1c-0.8,0.2-1.8-0.4-2.9-1.9c-0.3-0.3-0.5-0.8-0.9-1.4
		c-0.4-0.8-0.6-1.2-0.6-1.3c-1.3-1.2-2.4-2.3-3.2-3.3c-1.6-1.9-2.4-3.1-2.4-3.4C10.6,17,10.8,16.8,11.1,16.8z M18.2,23.2
		c-0.4,0.1-0.6,0.3-0.6,0.6c0,0.7,0.4,1.5,1.2,2.3c0.8,0.8,1.4,1.2,1.9,1.1c0.1,0,0.2-0.1,0.2-0.4c0-0.5-0.3-1.2-0.8-2.1
		C19.5,23.6,18.9,23.1,18.2,23.2z"/>
	<path fill="#351111" d="M17.9,0c0.3,0,0.6,1.1,0.7,3.2v1.4c0.6,0.7,1.2,1.4,1.9,2.1c0.7,1,1.1,2.2,1.1,3.7c0,0.5-0.4,1.1-1.1,1.7
		c0.2,0.6,0.6,1.5,1,2.8c0.2,0.7,0.4,1.9,0.7,3.5c0,0.1,0.1,0.4,0.2,0.8c0.1,0.3,0.1,0.5,0.1,0.6c0,0.4-0.2,0.5-0.6,0.5
		c-0.3,0-0.8-0.4-1.5-1.1c-0.6-0.7-1.2-1.4-1.8-2.2c-1.6-1.9-2.5-2.9-2.5-3.1c0-0.4,0.2-0.5,0.5-0.5c0.2,0,0.5,0.3,1,0.8
		s0.9,1.1,1.3,1.6c1,1.1,1.8,1.9,2.3,2.6c-0.1-0.9-0.3-1.8-0.5-2.7c-0.3-1-0.7-2.2-1.3-3.5c-0.4-0.3-1.1-1-2-2.1
		c-1.8-2.3-2.7-4.2-2.7-5.7c0-0.3,0.1-0.5,0.3-0.8c0.2-0.2,0.5-0.4,0.8-0.4c0.6,0,1.1,0.2,1.6,0.5c0.1-0.3,0.1-0.5,0.1-0.8
		c0-0.4-0.1-0.8-0.2-1.3s-0.2-0.8-0.2-0.9C17.1,0.2,17.4,0,17.9,0z M18.4,6.2c-0.2,0.5-0.3,0.8-0.5,0.9L17,7.6
		c0.3,0.5,0.8,1,1.4,1.8c0.8,0.8,1.3,1.2,1.6,1.2c0.2,0,0.4-0.3,0.5-0.9c0.1-0.4-0.1-1.1-0.6-1.9S18.8,6.4,18.4,6.2z"/>
</g>
</svg>
