<?xml version="1.0" encoding="utf-8"?>
<!-- Generator: Adobe Illustrator 17.1.0, SVG Export Plug-In . SVG Version: 6.00 Build 0)  -->
<!DOCTYPE svg PUBLIC "-//W3C//DTD SVG 1.1//EN" "http://www.w3.org/Graphics/SVG/1.1/DTD/svg11.dtd">
<svg version="1.1" id="Layer_1" xmlns="http://www.w3.org/2000/svg" xmlns:xlink="http://www.w3.org/1999/xlink" x="0px" y="0px"
	 viewBox="0 0 32.6 319.5" enable-background="new 0 0 32.6 319.5" xml:space="preserve">
<g>
	<path fill="#351111" d="M31.4,37.3c-0.3-0.1-0.8-0.5-1.4-1.2c-0.9-1-1.4-1.6-1.5-1.6c-0.6,0.2-1.2,0.4-1.6,0.4c-0.1,0-0.6,0-1.4,0
		c-1.1,0-2.6-0.5-4.4-1.4c-1.9-1-3.6-2.2-5-3.7c-1.7-1.6-3-3.6-4.1-6c-0.9-2.1-1.4-4-1.4-5.5c0-1.5,0.4-3.3,1.1-5.3
		c-0.3-0.4-0.8-1.5-1.4-3.4c-0.8-2.2-1.1-4-1.1-5.4C9.2,1.4,10,0,11.7,0c0.8,0,1.4,0.8,2,2.5c0.5,1.5,0.8,3.1,0.8,4.8
		c0,0.8-0.1,1.7-0.4,2.7c-0.3,0.9-0.5,1.7-0.8,2.6c1.1,1.1,3.2,3.7,6.5,8c1.1,1.6,2.6,3.6,4.4,6.1c1,1.3,2.4,3.2,4.3,5.7
		c0.7-0.6,1.2-1.4,1.7-2.6c0.6-1.4,0.9-3.1,0.9-4.9c0-1.2-0.2-2.7-0.7-4.4c-0.5-1.8-1.1-3.5-1.9-5c-0.9-1.7-1.9-3.2-3.2-4.6
		c-1.3-1.5-2.4-2.2-3.2-2.2c-0.4,0-0.7,0.1-0.8,0.4c-0.1,0.1-0.2,0.4-0.2,0.9c-0.1,0.6,0.2,1.7,0.8,3.2c0.6,1.5,1.3,2.8,2.1,3.8
		c1.6,2.1,2.9,3.2,4,3.2c0.3,0,0.5,0,0.7-0.1c0.1,0,0.2,0,0.3,0.1c0.4,0.2,0.6,0.5,0.5,0.8c-0.1,0.4-0.4,0.5-1,0.5
		c-1.7-0.1-3.5-1.3-5.2-3.6c-1-1.2-1.8-2.8-2.5-4.5c-0.6-1.6-1-2.7-1-3.4c0-0.7,0.2-1.3,0.7-1.9C21,7.2,21.6,7,22.2,7
		c2,0.2,4.4,2.7,7.3,7.7c1,1.7,1.8,3.5,2.3,5.5c0.5,1.8,0.8,3.3,0.8,4.6c0,3.3-0.9,6.2-2.8,8.6c0.3,0.4,0.9,1,1.6,1.9
		c0.3,0.3,0.5,0.6,0.8,0.9c0.3,0.3,0.4,0.6,0.4,0.7c0,0.3-0.2,0.5-0.7,0.5C31.8,37.4,31.6,37.4,31.4,37.3z M12.2,11
		c0.2-0.7,0.3-1.3,0.5-2C12.9,8.2,13,7.4,13,6.8c0-1-0.1-2.2-0.5-3.5c-0.4-1.3-0.7-2-1-2c-0.7,0-1.1,1-1.1,2.9c0,0.8,0.3,2.1,0.9,4
		C11.7,9.9,12.1,10.9,12.2,11z M25.6,33.4c0.4,0,1-0.1,1.8-0.4c-1.5-1.7-3-3.6-4.4-5.5c-0.8-1.2-2.1-3.1-3.9-5.8
		c-3-4.3-5.1-6.9-6.1-7.9c-0.5,1.8-0.8,3.3-0.8,4.4c0,1.6,0.4,3.3,1.1,5.1c0.8,2.1,2,3.8,3.4,5.3c1.4,1.4,2.9,2.5,4.4,3.4
		C22.8,33,24.3,33.4,25.6,33.4z"/>
	<path fill="#351111" d="M14.8,45.4c-0.3,0-0.6-0.5-0.8-1.4c-0.2-1-0.3-1.9-0.3-3c0-0.7,0.1-1.4,0.4-2.1c-1.5-1.5-2.4-2.5-2.8-3
		c-0.9-1.2-1.3-2.3-1.3-3.4c0-0.4,0.2-0.7,0.5-1c0.3-0.3,0.6-0.4,0.9-0.4c0.6,0,1.4,0.3,2.4,0.9c1,0.6,1.9,1.4,2.7,2.4
		c0.7,0.8,1.2,1.7,1.7,2.9c0.4,0.9,0.5,1.6,0.5,2c0,0.3-0.1,0.5-0.4,0.9c-0.3,0.3-0.6,0.5-1.1,0.5c-0.4,0-1.1-0.2-2.1-0.7
		c-0.1,0.3-0.3,0.8-0.4,1.4c0,0.5,0.1,1.2,0.2,2.1c0.1,0.9,0.2,1.4,0.2,1.5C15.1,45.2,15,45.4,14.8,45.4z M14.4,37.4
		c0.3,0.1,0.6,0.1,1,0c0.5-0.1,0.8-0.3,0.9-0.5c-0.4-0.9-0.9-1.7-1.5-2.3c-1.4-1.4-2.5-2.1-3.2-2.1c-0.3,0-0.5,0.1-0.5,0.3
		C11.2,33.7,12.3,35.3,14.4,37.4z"/>
	<path fill="#351111" d="M14.5,56.8c-0.3,0-1.1-1.8-2.3-5.5c-1.1-3.2-1.6-5.4-1.6-6.5c0-1.3,0.6-1.9,1.7-1.9c1,0,2.4,1.2,4,3.7
		c1.1,1.6,1.6,2.7,1.6,3.4c0,0.3-0.1,0.6-0.3,0.9s-0.5,0.4-0.8,0.4c-0.1,0-0.4-0.1-0.7-0.4c-0.4-0.3-0.7-0.6-0.7-0.8
		c-0.1-0.3,0.2-0.6,0.8-1c-0.2-0.5-0.6-1.2-1.2-2.1c-1.3-1.7-2.2-2.6-2.7-2.6c-0.1,0-0.2,0.1-0.3,0.2c-0.1,0.1-0.2,0.3-0.2,0.4
		c0,0.8,0.5,2.8,1.5,6c1.1,3.3,1.6,5,1.6,5C15,56.5,14.8,56.8,14.5,56.8z"/>
	<path fill="#351111" d="M13.5,80.5c-0.2,0-0.4-0.3-0.8-1s-0.7-1.3-0.9-2c-0.8-2.4-1.2-4.2-1.2-5.6c0-0.5,0.1-0.9,0.4-1.2
		c0.2-0.3,0.6-0.5,1-0.5c0.2,0,0.7,0.3,1.3,0.9c0.5,0.5,1.1,1,1.6,1.5c-0.2-1.3-0.7-2.8-1.5-4.5c-1.3-2.7-1.9-4.2-1.9-4.4
		c0-0.5,0.2-0.7,0.7-0.7c0.3,0,0.8,0.4,1.5,1.2c0.7,0.8,1.2,1.2,1.4,1.2c0.2,0,0.3-0.1,0.3-0.3c0-0.6-0.8-2.7-2.4-6.2
		c-0.1-0.2-0.6-1.1-1.4-2.8c-0.6-1.1-0.9-1.8-0.9-2.1c0-0.4,0.2-0.6,0.7-0.6c0.4,0,1.5,1.1,3.2,3.4c1.7,2.3,2.6,3.7,2.6,4.3
		c0,0.3-0.1,0.4-0.4,0.4c-0.1,0-0.5-0.4-1.2-1.2c-0.7-1-1.2-1.5-1.5-1.7c0,0,0.3,0.9,0.8,2.5c0.1,0.3,0.5,1.3,1.1,3
		c0.4,1.1,0.6,1.8,0.6,2.2c0,0.5-0.1,0.9-0.4,1.2s-0.6,0.4-1,0.4c-0.6-0.1-1-0.2-1.4-0.4c0.4,0.8,0.9,2.1,1.6,3.9
		c0.6,1.9,0.9,3.1,0.9,3.8c0,0.4-0.2,0.6-0.7,0.6c-0.2,0-0.5-0.3-0.9-1c-0.5-0.8-0.9-1.4-1.2-1.7c-1-0.9-1.6-1.4-1.8-1.4
		c-0.3,0-0.4,0.3-0.4,0.9c0,0.9,0.3,2.3,0.9,4.3c0.2,0.5,0.4,1.2,0.8,2.1c0.3,0.8,0.5,1.2,0.5,1.2C13.8,80.4,13.7,80.5,13.5,80.5z"
		/>
	<path fill="#351111" d="M14.4,96.7c-0.3,0-1-1.2-2.1-3.6c-0.8-1.7-1.1-3.4-1.1-5c0-0.5,0.2-0.9,0.6-1.1c0.3-0.2,0.7-0.4,1-0.5
		c-1.4-2.1-2.2-4-2.2-5.8c0-0.6,0.2-1.2,0.5-1.5c0.3-0.4,0.7-0.6,1.2-0.6c1.1,0,2.1,0.7,3,2.2c1,1.6,1.5,3.6,1.5,6
		c0,0.9-0.3,1.6-0.9,2.1c0.2,0.4,0.4,0.7,0.4,1.2c0,0.3-0.3,0.5-0.9,0.5c-0.1,0-0.5-0.4-1-1.1c-0.5-0.7-1-1.1-1.3-1.1
		c-0.5,0-0.8,0.2-0.8,0.5c0,1.3,0.3,2.6,0.9,3.9c1,2.1,1.5,3.3,1.5,3.6C14.8,96.6,14.7,96.7,14.4,96.7z M15.2,86.7
		c0.2,0,0.3-0.2,0.3-0.6c0-0.9-0.3-2.1-0.9-3.5c-0.7-1.6-1.4-2.4-2.2-2.4c-0.3,0-0.5,0.1-0.5,0.4c-0.1,0.7,0.2,1.8,0.8,3.3
		C13.4,85.6,14.3,86.5,15.2,86.7z"/>
	<path fill="#351111" d="M30.5,120.6c-0.4,0-1.2-0.6-2.4-1.9c-1.4-1.5-2.8-3.2-4.1-5.2c-0.9-1.3-1.9-3.3-3.1-5.9
		c-1.6-3.7-2.6-5.8-2.8-6.1c-0.2-0.3-0.6-0.8-1.1-1.5c-0.6-0.8-1.3-1.5-1.9-2.1c-1.9-1.7-3-2.6-3.4-2.6c-0.3,0-0.4,0.1-0.4,0.4
		c0,0.5,0.3,1.3,0.9,2.3c0.6,0.9,1.1,1.9,1.7,2.8c0.3,0.3,0.8,0.8,1.4,1.5c0.9,1.1,1.4,1.9,1.4,2.4c0,0.4-0.2,0.6-0.6,0.6
		c-0.8,0-1.7-0.8-2.7-2.3c-0.3,0.4-0.5,1-0.5,1.7c0,0.9,0.1,2,0.4,3c0.3,1.1,0.4,1.7,0.4,2S13.4,110,13,110c-0.1,0-0.4-0.8-0.8-2.4
		c-0.4-1.6-0.6-2.8-0.6-3.7c0-0.7,0.3-1.7,1-2.9c-0.5-1-1.1-2-1.6-2.9c-0.6-1.2-0.9-2.2-0.9-3c0-0.5,0.2-0.9,0.5-1.2
		c0.3-0.3,0.5-0.4,0.7-0.4c0.6,0,1.4,0.3,2.2,1c0.2,0.1,0.9,0.8,2.3,2.1c0.6,0.6,1.3,1.3,1.9,2.1c1.1,1.5,1.7,2.2,1.7,2.3
		c1.1,1.3,2.2,2.6,3.3,3.9c1.8,2.1,3.2,4,4.2,5.6c1.9,2.8,3,4.5,3.3,5c1.1,1.8,1.7,3.1,1.7,3.7c0,0.3-0.2,0.6-0.5,0.9
		C31.2,120.4,30.9,120.6,30.5,120.6z M30.5,119.2c0.2,0,0.2-0.1,0.2-0.2c0-0.8-1.6-3.4-4.7-7.8c-0.7-1-2.2-2.9-4.7-5.7
		c0.6,1.7,1.1,2.8,1.4,3.4c0.6,1.4,1.3,2.6,2,3.8c0.9,1.4,2,2.8,3.3,4.3C29.4,118.5,30.2,119.2,30.5,119.2z"/>
	<path fill="#351111" d="M13.1,126.9c-0.4,0-1-0.9-1.7-2.8c-0.7-1.9-1.1-3.3-1.1-4.2c0-0.5,0.3-1,0.8-1.4c0.5-0.4,1.1-0.6,1.6-0.6
		c0.8,0,1.6,0.3,2.5,0.6c-0.9-0.9-1.9-2.6-3-4.8c-1-2.2-1.5-3.5-1.5-3.9c0.1-0.9,0.5-1.4,1.4-1.4c0.7,0,1.3,0.1,1.8,0.4
		c0.6,0.4,0.9,0.8,0.7,1.4c-0.1,0.4-0.3,0.5-0.6,0.3c-0.2-0.1-0.6-0.3-1.1-0.4c-0.3-0.1-0.5,0.1-0.5,0.6c0,0.5,1.1,2.8,3.4,6.8
		c0.5,0.8,1,1.6,1.5,2.4c0.6,1,0.9,1.8,0.9,2.3c0,0.1,0,0.1-0.1,0.2s-0.2,0.1-0.3,0.1c-0.4-0.4-1.1-1-2.1-1.9
		c-1-0.8-1.9-1.2-2.8-1.2c-0.3,0-0.6,0.1-0.9,0.2c-0.3,0.2-0.5,0.4-0.5,0.8c0,0.3,0.3,1.4,1,3.3s1,2.9,1,3.1
		C13.4,126.8,13.3,126.9,13.1,126.9z"/>
	<path fill="#351111" d="M13.7,153.1c-0.3,0-0.9-1.3-1.7-4c-0.9-2.8-1.3-4.9-1.3-6c0-0.9,0.4-1.3,1.3-1.3c0.5,0,1.2,0.3,1.9,0.8
		c-0.1-0.3-0.3-0.9-0.6-1.8c-0.3-0.9-0.5-1.5-0.7-2c-0.2-0.4-0.7-1-1.4-1.8c-0.6-0.6-0.9-1.1-0.9-1.3c0-0.2,0.1-0.5,0.2-0.7
		c0.1-0.2,0.3-0.3,0.5-0.3c0.2,0,1,1,2.6,2.9c0.8,0.9,1.3,1.5,1.5,1.7c0.4,0.4,1,0.7,1.7,0.9c-0.3-0.6-1.5-2.8-3.7-6.5
		c-1.4-2.3-2.1-3.6-2.3-4c-0.7-1.4-1.1-2.6-1.1-3.6c0-0.9,0.5-1.3,1.5-1.3c0.4,0,1.1,0.4,2.1,1.3c1.5,1.3,2.3,2.2,2.3,2.8
		c0,0.3-0.2,0.4-0.5,0.4c-0.1,0-0.3-0.2-0.7-0.7c-0.5-0.6-0.9-1-1.1-1.2c-1-0.9-1.7-1.3-2-1.3c-0.2,0-0.3,0.3-0.3,0.8
		c0,0.6,0.3,1.5,0.9,2.7c0.2,0.4,0.8,1.5,1.9,3.4c0.9,1.6,2.4,4.2,4.5,7.9c0.3-0.1,0.6-0.2,0.9-0.3c0.4-0.1,1-0.2,1.6-0.2
		c0.5,0,1.1,0.3,1.9,0.8c0.8,0.6,1.5,1.5,2,2.4c0.3,0.5,0.6,1.1,0.9,1.6c0.3,0.7,0.5,1.2,0.5,1.7c0,0.2-0.1,0.4-0.4,0.6
		c-0.3,0.2-0.6,0.3-0.9,0.3c-0.6,0-1.7-0.7-3.3-2.2c-0.7-0.6-1.7-1.7-3.1-3.1c-0.4-0.1-0.8-0.2-1.5-0.5c-0.1-0.1-0.7-0.4-1.9-0.9
		c0,0.4,0.2,1.2,0.5,2.6c0.1,0.3,0.3,0.8,0.7,1.4c0.3,0.5,0.5,0.9,0.5,1.1c0,0.3-0.3,0.5-0.8,0.5c-0.2,0-0.5-0.2-0.8-0.7
		c-0.3-0.5-0.6-0.9-0.9-1.4c-0.6-0.8-1.1-1.2-1.6-1.2c-0.5,0-0.7,0.1-0.7,0.3c0,0.7,0.4,2.5,1.1,5.2c0.1,0.3,0.3,1.1,0.7,2.2
		c0.3,0.8,0.4,1.3,0.4,1.6C14.1,153,13.9,153.1,13.7,153.1z M23.9,146.2c0.2,0,0.3-0.1,0.4-0.3c0.1-0.1-0.2-0.6-0.8-1.5
		c-0.4-0.6-0.8-1.1-1.4-1.6c-0.6-0.5-1.1-0.8-1.4-0.8c-0.6,0-1.1,0-1.4,0.1C22.1,144.9,23.6,146.2,23.9,146.2z"/>
	<path fill="#351111" d="M13.1,161.2c-0.3,0-0.7-0.8-1.3-2.4c-0.7-1.8-1.1-3.2-1.1-4.4c0-1,0.2-1.7,0.5-2.3c0.4-0.6,0.8-0.9,1.3-0.9
		c1,0,2.2,0.8,3.6,2.4c0.8,0.9,1.5,1.9,2.2,3c0.6,1,1,1.7,1,1.9c0,0.6-0.3,0.9-0.8,0.9c-0.7,0-1.7-0.9-2.9-2.6
		c-0.9-1.3-1.6-2.4-2-3.2c-0.4-0.6-0.7-0.9-1.1-0.9c-0.5,0-0.8,0.6-0.8,1.9c0,0.9,0.3,2.1,0.9,3.6c0.6,1.5,0.9,2.4,0.9,2.4
		C13.6,161,13.5,161.2,13.1,161.2z"/>
	<path fill="#351111" d="M14.1,185.1c-0.3,0-0.9-1.1-1.8-3.2c-1.2-2.6-1.7-4.4-1.7-5.5c0-0.7,0.1-1.3,0.4-1.8
		c0.2-0.5,0.5-0.7,0.8-0.7c0.2,0,0.5,0.1,0.8,0.3c0.3,0.2,0.6,0.4,0.9,0.5c-0.5-0.9-0.9-2-1.5-3.4c-0.5-1.4-0.8-2.2-0.8-2.4
		c0-0.6,0.2-0.9,0.5-0.9c0.3,0,0.6,0.2,1.2,0.6c-0.7-1.2-1.3-2.3-1.6-3.3c-0.6-1.8-1-3.1-1-3.9c0-0.9,0.5-1.4,1.4-1.4
		c0.5,0,1.2,0.2,2,0.7c0.8,0.5,1.2,0.9,1.2,1.1c0,0.5-0.2,0.7-0.6,0.7c-0.4,0-0.8-0.1-1.3-0.4s-0.8-0.4-0.9-0.4
		c-0.3,0-0.4,0.3-0.4,0.9c0,0.3,0.2,1,0.6,2.1s0.8,2.1,1.2,2.9c1,2,2.3,3.9,3.8,5.6c1.4,1.6,2,2.5,2,2.8c0,0.3-0.2,0.5-0.7,0.5
		c-0.2,0-0.5-0.2-1-0.7c-0.3-0.4-0.6-0.7-0.9-1.1c-0.8-0.9-2.1-2.3-3.7-4.2c0.5,1.8,1.6,4,3.2,6.6c0.4,0.5,0.7,1.1,1.1,1.6
		c0.5,0.8,0.7,1.3,0.7,1.5c0,0.3-0.2,0.5-0.6,0.5c-0.4,0-1.2-0.9-2.5-2.7c-0.3-0.5-0.8-1-1.5-1.7c-0.6-0.6-1-1-1.2-1
		c-0.3,0-0.5,0.4-0.5,1.2c0,1.2,0.5,2.8,1.4,4.9c0.1,0.2,0.4,0.8,1,1.9c0.4,0.8,0.6,1.2,0.6,1.4C14.6,184.9,14.5,185.1,14.1,185.1z"
		/>
	<path fill="#351111" d="M14.5,205.7c-0.3,0-1.1-1.8-2.3-5.5c-1.1-3.2-1.6-5.4-1.6-6.5c0-1.3,0.6-1.9,1.7-1.9c1,0,2.4,1.2,4,3.7
		c1.1,1.6,1.6,2.7,1.6,3.4c0,0.3-0.1,0.6-0.3,0.9s-0.5,0.4-0.8,0.4c-0.1,0-0.4-0.1-0.7-0.4c-0.4-0.3-0.7-0.6-0.7-0.8
		c-0.1-0.3,0.2-0.6,0.8-1c-0.2-0.5-0.6-1.2-1.2-2.1c-1.3-1.7-2.2-2.6-2.7-2.6c-0.1,0-0.2,0.1-0.3,0.2c-0.1,0.1-0.2,0.3-0.2,0.4
		c0,0.8,0.5,2.8,1.5,6c1.1,3.3,1.6,5,1.6,5C15,205.4,14.8,205.7,14.5,205.7z"/>
	<path fill="#351111" d="M14.6,229.4c-0.1,0-1-1.6-2.7-4.7l-2.6-4.8c-1.2-0.5-2-0.9-2.5-1.1c-1.2-0.6-2.2-1.3-3.1-2
		c-1-0.9-1.9-1.8-2.6-2.9c-0.8-1.2-1.1-2.3-1.1-3.3c0-0.3,0.2-0.7,0.5-1.1c0.4-0.5,1-0.8,1.7-0.8c0.6,0,1.3,0.5,2.2,1.4
		c0.8,0.8,1.7,1.8,2.5,3.1c0.8,1.4,1.8,3,3,4.9c0.2-0.3,0.4-0.6,0.6-0.9c0.3-0.3,0.5-0.4,0.9-0.4c0.2,0,0.6,0.3,1.2,1
		c1.3,1.6,2,2.6,2.4,2.9c1.3,1.5,2.1,2.3,2.2,2.3c0.2,0,0.3-0.1,0.3-0.4c0,0.5,0,0.2,0-0.7c0-0.6-0.4-1.9-1.2-3.8
		c-0.5-1.1-1-2.1-1.7-3c-0.7-0.9-1.2-1.3-1.5-1.3c-0.1,0-0.1,0.1-0.1,0.2c0,0.1-0.1,0.2-0.1,0.2c-0.1,0-0.1,0-0.2,0
		c-0.2,0-0.4-0.1-0.6-0.4s-0.3-0.5-0.2-0.8c0.1-0.6,0.4-1,1-1c0.5,0,1.2,0.5,2.1,1.5c1,1.1,1.8,2.3,2.5,3.9c0.9,1.9,1.4,3.4,1.4,4.5
		c0,1.6-0.5,2.4-1.4,2.4c-0.6,0-1.7-0.9-3.2-2.7c-0.6-0.7-1.1-1.4-1.7-2.2c-0.6-0.7-0.9-1.1-1-1.1c-0.4,0-0.6,0.4-0.8,1.2
		c0.6,1.7,1.4,3.3,2.2,4.8c1.5,2.9,2.3,4.4,2.3,4.7C15,229.3,14.9,229.4,14.6,229.4z M8.2,218c-1.3-2.3-2.2-3.8-2.8-4.6
		c-1.5-2.2-2.7-3.2-3.6-3.2c-0.1,0-0.2,0.1-0.3,0.3c-0.1,0.2-0.2,0.3-0.2,0.4c0,1.4,1.1,2.9,3.2,4.7C5.8,216.6,7,217.4,8.2,218z"/>
	<path fill="#351111" d="M14.4,245.8c-0.3,0-1-1.2-2.1-3.6c-0.8-1.7-1.1-3.4-1.1-5c0-0.5,0.2-0.9,0.6-1.1c0.3-0.2,0.7-0.4,1-0.5
		c-1.4-2.1-2.2-4-2.2-5.8c0-0.6,0.2-1.2,0.5-1.5c0.3-0.4,0.7-0.6,1.2-0.6c1.1,0,2.1,0.7,3,2.2c1,1.6,1.5,3.6,1.5,6
		c0,0.9-0.3,1.6-0.9,2.1c0.2,0.4,0.4,0.7,0.4,1.2c0,0.3-0.3,0.5-0.9,0.5c-0.1,0-0.5-0.4-1-1.1s-1-1.1-1.3-1.1
		c-0.5,0-0.8,0.2-0.8,0.5c0,1.3,0.3,2.6,0.9,3.9c1,2.1,1.5,3.3,1.5,3.6C14.8,245.6,14.7,245.8,14.4,245.8z M15.2,235.8
		c0.2,0,0.3-0.2,0.3-0.6c0-0.9-0.3-2.1-0.9-3.5c-0.7-1.6-1.4-2.4-2.2-2.4c-0.3,0-0.5,0.1-0.5,0.4c-0.1,0.7,0.2,1.8,0.8,3.3
		C13.4,234.7,14.3,235.6,15.2,235.8z"/>
	<path fill="#351111" d="M30.8,278.2c-0.5,0-0.9-0.4-1.4-1.3c-0.4-0.7-0.7-1.6-0.9-2.5c-0.2-1.3-0.5-2.7-0.7-4.3
		c-0.3-2.7-0.5-4.2-0.6-4.4c-0.1-1-0.4-2.5-0.6-4.6c-0.7-0.6-1.6-1.3-2.9-2.2c-1.5-1.1-2.7-1.9-3.6-2.6c-2.9-2.2-5.5-4.7-7.8-7.5
		c-1.3-1.6-2-3-2-4.3c0-0.5,0.2-0.9,0.5-1.2c0.3-0.3,0.7-0.4,1.1-0.4c0.7,0,1.8,0.8,3.4,2.5c0.7,0.7,1.3,1.5,1.8,2.4
		s0.8,1.5,0.8,1.9c0,1-0.6,1.5-1.9,1.5c1,1,2.7,2.4,5.1,4.3c1.6,1.1,3.1,2.2,4.7,3.2c1.5,1,2.2,1.8,2.2,2.1c0,0.4,0.2,2.1,0.6,5.3
		c0.1,1.2,0.4,3,0.7,5.2c0.1-0.2,0.2-0.3,0.4-0.5c0.1,0,0.2,0,0.3,0.1c0.1,0.1,0.2,0.2,0.2,0.4c0,1.8,0,2.9,0.1,3.2
		c0.1,0.5,0.3,1,0.5,1.7c0.2,0.5,0.2,0.9,0.2,1.1c0,0.8,0,1,0,0.7C31.1,278.1,31,278.2,30.8,278.2z M15,249.9c0.6,0,0.9-0.2,1-0.6
		c0.1-0.5-0.4-1.4-1.4-2.7c-1-1.3-1.8-2-2.2-2c-0.4,0-0.6,0.1-0.6,0.4C11.7,245.9,12.8,247.5,15,249.9z"/>
	<path fill="#351111" d="M14.8,268.4c-0.3,0-0.6-0.5-0.8-1.4c-0.2-1-0.3-2-0.3-3c0-0.7,0.1-1.4,0.4-2.1c-1.5-1.5-2.4-2.5-2.8-3
		c-0.9-1.2-1.3-2.3-1.3-3.4c0-0.4,0.2-0.7,0.5-1c0.3-0.3,0.6-0.4,0.9-0.4c0.6,0,1.4,0.3,2.4,0.9c1,0.6,1.9,1.4,2.7,2.4
		c0.7,0.8,1.2,1.7,1.7,2.9c0.4,0.9,0.5,1.6,0.5,2c0,0.3-0.1,0.5-0.4,0.9c-0.3,0.3-0.6,0.5-1.1,0.5c-0.4,0-1.1-0.2-2.1-0.7
		c-0.1,0.3-0.3,0.8-0.4,1.4c0,0.5,0.1,1.2,0.2,2.1c0.1,0.9,0.2,1.4,0.2,1.5C15.1,268.3,15,268.4,14.8,268.4z M14.4,260.4
		c0.3,0.1,0.6,0.1,1,0c0.5-0.1,0.8-0.3,0.9-0.5c-0.4-0.9-0.9-1.7-1.5-2.3c-1.4-1.4-2.5-2.1-3.2-2.1c-0.3,0-0.5,0.1-0.5,0.3
		C11.2,256.8,12.3,258.3,14.4,260.4z"/>
	<path fill="#351111" d="M13.5,292c-0.2,0-0.4-0.3-0.8-1c-0.4-0.7-0.7-1.3-0.9-2c-0.8-2.4-1.2-4.2-1.2-5.6c0-0.5,0.1-0.9,0.4-1.2
		c0.2-0.3,0.6-0.5,1-0.5c0.2,0,0.7,0.3,1.3,0.9c0.5,0.5,1.1,1,1.6,1.5c-0.2-1.3-0.7-2.8-1.5-4.5c-1.3-2.7-1.9-4.2-1.9-4.4
		c0-0.5,0.2-0.7,0.7-0.7c0.3,0,0.8,0.4,1.5,1.2c0.7,0.8,1.2,1.2,1.4,1.2c0.2,0,0.3-0.1,0.3-0.3c0-0.6-0.8-2.7-2.4-6.2
		c-0.1-0.2-0.6-1.1-1.4-2.8c-0.6-1.1-0.9-1.8-0.9-2.1c0-0.4,0.2-0.6,0.7-0.6c0.4,0,1.5,1.1,3.2,3.4c1.7,2.3,2.6,3.7,2.6,4.3
		c0,0.3-0.1,0.4-0.4,0.4c-0.1,0-0.5-0.4-1.2-1.2c-0.7-1-1.2-1.5-1.5-1.7c0,0,0.3,0.9,0.8,2.5c0.1,0.3,0.5,1.3,1.1,3
		c0.4,1.1,0.6,1.8,0.6,2.2c0,0.5-0.1,0.9-0.4,1.2s-0.6,0.4-1,0.4c-0.6-0.1-1-0.2-1.4-0.4c0.4,0.8,0.9,2.1,1.6,3.9
		c0.6,1.9,0.9,3.1,0.9,3.8c0,0.4-0.2,0.6-0.7,0.6c-0.2,0-0.5-0.3-0.9-1c-0.5-0.8-0.9-1.4-1.2-1.7c-1-0.9-1.6-1.4-1.8-1.4
		c-0.3,0-0.4,0.3-0.4,0.9c0,0.9,0.3,2.3,0.9,4.3c0.2,0.5,0.4,1.2,0.8,2.1c0.3,0.8,0.5,1.2,0.5,1.2C13.8,291.9,13.7,292,13.5,292z"/>
	<path fill="#351111" d="M14.8,304.4c-0.3,0-0.6-0.5-0.8-1.4c-0.2-1-0.3-2-0.3-3c0-0.7,0.1-1.4,0.4-2.1c-1.5-1.5-2.4-2.5-2.8-3
		c-0.9-1.2-1.3-2.3-1.3-3.4c0-0.4,0.2-0.7,0.5-1c0.3-0.3,0.6-0.4,0.9-0.4c0.6,0,1.4,0.3,2.4,0.9c1,0.6,1.9,1.4,2.7,2.4
		c0.7,0.8,1.2,1.7,1.7,2.9c0.4,0.9,0.5,1.6,0.5,2c0,0.3-0.1,0.5-0.4,0.9c-0.3,0.3-0.6,0.5-1.1,0.5c-0.4,0-1.1-0.2-2.1-0.7
		c-0.1,0.3-0.3,0.8-0.4,1.4c0,0.5,0.1,1.2,0.2,2.1c0.1,0.9,0.2,1.4,0.2,1.5C15.1,304.2,15,304.4,14.8,304.4z M14.4,296.4
		c0.3,0.1,0.6,0.1,1,0c0.5-0.1,0.8-0.3,0.9-0.5c-0.4-0.9-0.9-1.7-1.5-2.3c-1.4-1.4-2.5-2.1-3.2-2.1c-0.3,0-0.5,0.1-0.5,0.3
		C11.2,292.7,12.3,294.3,14.4,296.4z"/>
	<path fill="#351111" d="M13.6,319.5c-0.4,0-0.9-1-1.6-2.9c-0.6-1.6-0.8-2.7-0.8-3.5c0-0.9,0.1-1.6,0.4-2.1c0.1-0.2,0.4-0.5,0.8-1
		c-0.6-1.2-1-2.1-1.1-2.7c-0.2-0.8-0.4-2-0.4-3.6c0-0.5,0.2-1,0.5-1.3c0.3-0.4,0.7-0.6,1.2-0.6c0.5,0,1.4,0.8,2.7,2.4
		c1.3,1.5,2,2.6,2.2,3.1c0.1,0.3-0.1,0.4-0.6,0.4c-0.2,0-0.9-0.7-2-2.1s-1.9-2.1-2.3-2.1c-0.4,0-0.5,0.4-0.5,1.1
		c0,1.9,0.7,3.9,2,5.9c0.3,0.4,0.9,1.2,1.9,2.4c0.7,0.8,1,1.4,1,1.6c0,0.3-0.2,0.4-0.6,0.4c-0.6,0-1.1-0.3-1.6-0.8
		c-0.2-0.2-0.5-0.7-1-1.4c-0.3-0.5-0.6-0.8-0.8-0.8c-0.6,0-0.8,0.5-0.8,1.4c0,0.4,0.2,1.4,0.6,2.8c0.1,0.3,0.3,0.9,0.6,1.7
		c0.3,0.7,0.4,1.1,0.4,1.2C13.8,319.4,13.8,319.5,13.6,319.5z M25.3,318.3c-0.2,0-0.6-0.4-1.2-1.3c-0.8-1.3-1.4-2.1-1.7-2.4
		s-0.9-1-1.9-2c-0.7-0.7-1-1.1-1-1.3c0-0.5,0.2-0.8,0.5-0.8c0.4,0,1.5,1.1,3.3,3.3c1.7,2.1,2.5,3.4,2.5,4
		C25.8,318.2,25.6,318.3,25.3,318.3z"/>
</g>
</svg>
