<?xml version="1.0" encoding="utf-8"?>
<!-- Generator: Adobe Illustrator 17.1.0, SVG Export Plug-In . SVG Version: 6.00 Build 0)  -->
<!DOCTYPE svg PUBLIC "-//W3C//DTD SVG 1.1//EN" "http://www.w3.org/Graphics/SVG/1.1/DTD/svg11.dtd">
<svg version="1.1" id="Layer_1" xmlns="http://www.w3.org/2000/svg" xmlns:xlink="http://www.w3.org/1999/xlink" x="0px" y="0px"
	 viewBox="0 0 385 242" enable-background="new 0 0 385 242" xml:space="preserve">
<g>
	<path fill="#FE0303" d="M139,0c9,2.9,17.9,6.8,27.1,8.4c6.1,1.1,12.8-1.5,19.3-1.6c12.4-0.2,24.9-0.2,37.3,0.4
		c8,0.4,13.1,6.6,18.3,11.9c3.9,4,6.6,9,10.2,13.2c0.8,1,2.8,1.3,4.2,1.3c7.3,0.4,14.7-0.3,21.8,1c11,2,15.8,11.7,21.5,19.9
		c9.2,13.3,15,28.3,20.1,43.5c3,8.9,2.6,17.5-1.9,26c-3.9,7.3-7.1,14.8-10.9,22.1c-5.1,9.8-14.3,15-23.6,19.7
		c-15,7.6-31.4,11.2-47.7,14.7c-13.3,2.8-24-2-32.7-11.9c-7.8-8.9-15.4-18-23.4-26.8c-1.3-1.4-4.5-1.9-6.6-1.5
		c-8.6,1.9-17.1,2-25.7-0.4c-8.1-2.2-13.9-7.2-17.9-14.3c-1.4-2.5-2.6-4.1-5.7-3.4c-8.9,2.3-16.8-1.3-24.3-5.2
		c-8.3-4.4-16.3-9.4-24.1-14.6C56.6,90.8,50.5,73.6,52.3,52.8c0.7-7.5,1.7-15,6.8-21c2.4-2.9,4.9-5.9,8.1-7.8
		C85.4,13,105.4,5.9,126.1,1c0.4-0.1,0.6-0.6,0.9-1C131,0,135,0,139,0z M241.4,139.7c13.6,0.7,27.1-2.5,40.1-6.9
		c7.4-2.5,14.3-6.8,21-10.9c5.2-3.1,8.8-8,8.3-14.3c-0.6-7.1-1.1-14.5-3.7-20.9c-4.1-10-9.7-19.5-15.4-28.7
		c-3.2-5.2-7.5-10-12.3-13.7c-6-4.6-13.7-4.7-21-4.3c-17.9,1.2-35.6,3.7-52.9,9.1c-16.9,5.2-23,16.6-16.8,33.1
		c5.2,13.7,12.6,26.2,21.1,38c3.4,4.6,6.6,9.5,10.4,13.7C225.8,140,233.3,140.5,241.4,139.7z M242.7,35.3c-3.2-4.1-5.8-7.4-8.4-10.7
		c-5.5-7.1-12.2-11.8-21.6-12.5c-13.4-0.9-26.6-0.7-39.6,3.2c-7.4,2.3-14.8,4.7-21.9,8c-7.5,3.4-12,9.5-11.4,18.2
		c1,14.1,6.1,27.1,11.8,39.8c2,4.5,4.5,8.6,7.4,14c1.5-4.5,2.9-7.7,3.7-11.1c2.8-11.1,7.6-21.3,16.4-28.9
		c11.2-9.7,24.9-14.2,39.2-16.9C226.1,37.1,233.9,36.5,242.7,35.3z M150.5,12.3c-8.3-4.9-16.1-5.8-23.9-4.8
		c-21.9,3-41.9,10.5-58.5,25.7c-4.9,4.5-5.4,11.5-0.9,16.2c4.6,4.6,8.8,9.8,14,13.5c8.5,6.2,18,11,28.5,14.3
		c0-7.8-0.5-15.1,0.1-22.3c0.8-8,3-16.1,9.4-21.3c7.8-6.4,16.7-11.7,25.1-17.4C146.1,15.1,147.8,14,150.5,12.3z"/>
	<path fill="#FE0707" d="M262,242c-0.6-0.4-1.3-1-1.9-1c-20.4-1.6-40.4-5-60.1-10.6c-13.5-3.8-27.3-6.8-40.6-11.1
		c-11.1-3.6-22-8.2-32.6-13.1c-12.8-5.9-25.8-11.9-37.9-19.1c-14.7-8.8-29.2-18-41.2-30.5c-8.3-8.7-17.3-16.9-24.7-26.3
		c-8-10.2-14.2-21.7-18.4-34.1C3.2,92.4,1.5,88.7,0,85c0-8.7,0-17.3,0-26c1.2-2,2.8-4,3.7-6.1c6.1-14.4,17.5-23.1,31.6-28.6
		c2.3-0.9,5-0.6,7.4-0.9c0.2,0.7,0.3,1.3,0.5,2c-4.6,2.6-9.3,5.1-13.8,7.8C12.7,43.3,5.7,62,9.9,80.3c3.8,16.2,11.6,30.2,21.5,43.6
		c9.9,13.4,21.6,24.8,34.6,34.6c12,9.1,25,17.1,38.3,24.3c13.6,7.4,27.7,14,42.1,19.5c16.2,6.1,32.8,11.6,49.6,15.6
		c34.5,8.1,69.2,14.6,104.9,8c17.7-3.3,34.5-8.6,48.8-19.5c20.8-15.8,28.5-39.5,19.8-65.6c-3.5-10.5-9.2-19.8-16.7-27.9
		c-8.3-9-16.7-17.9-25.6-27.5c2.1,0.9,4.1,1.3,5.5,2.4c14.5,10.7,28.3,22.3,38.7,37.1c5.6,8,9.3,17.1,11.7,26.7
		c0.4,1.5,1.2,2.9,1.8,4.3c0,2,0,4,0,6c0,3.7,0,7.3,0,11c0,2,0,4,0,6c-0.7,1.3-1.7,2.6-2.1,4c-5.2,17.9-16.4,31.4-32.1,40.7
		c-16.9,10-35.4,16.2-55.4,17.4c-0.5,0-1,0.6-1.5,1c-2.3,0-4.7,0-7,0c-5,0-10,0-15,0C268.7,242,265.3,242,262,242z"/>
	<path fill="#FE5050" d="M272,242c5,0,10,0,15,0C282,242,277,242,272,242z"/>
	<path fill="#FE7373" d="M385,173c0-3.7,0-7.3,0-11C385,165.7,385,169.3,385,173z"/>
	<path fill="#FE0D0D" d="M45.5,34.3c-3,3.5-6,7.1-9.1,10.5c-10.7,11.9-13.8,32.3-6,45.8c6,10.5,12.2,21.1,20,30.3
		c9.7,11.5,21,21.7,33.8,29.9c9.5,6.1,18.8,12.8,28.8,17.9c13.3,6.8,27.2,12.4,40.9,18.3c5.3,2.3,10.9,3.8,16.4,5.5
		c9.8,2.9,19.6,6,29.5,8.5c29.1,7.1,58.8,9,88.6,6.2c13.3-1.2,26.5-4.5,38.4-11c23.1-12.6,33.6-36.6,20.9-62.7
		c-4.5-9.3-11.2-17.7-16.7-26.5c-0.8-1.3-0.9-3-1.4-4.5c0.5-0.4,0.9-0.8,1.4-1.3c3.3,2.9,6.9,5.5,9.8,8.7
		c5.1,5.8,9.7,11.9,14.4,17.9c7.9,10,10.2,21.5,9.2,33.9c-0.9,11.1-5.2,20.9-12,29.3c-3.8,4.7-8.8,8.8-13.9,12.1
		c-14.5,9.3-31,13.5-47.7,15.6c-26.9,3.3-53.7,1.1-80.1-5.5c-13.6-3.4-27.7-5.3-41-9.8c-18.1-6.1-36-13.2-53.1-21.5
		c-17.1-8.2-33.5-18.1-48.4-30.2C55.3,141,43,129.6,33.5,115.5C25.1,103,17.8,89.8,16.9,74.2c-0.7-11,1.6-20.7,9.9-29
		c4.2-4.2,8.1-8.3,13.3-11c1.4-0.7,3-0.9,4.5-1.4C44.9,33.3,45.2,33.8,45.5,34.3z"/>
	<path fill="#FE0909" d="M148.2,175c3.8,0.9,7.6,1.6,11.4,2.8c22.4,7.1,45.1,12.5,68.5,13.7c20.6,1.1,41.3,1.4,61.8,0.1
		c17.2-1,32.8-7.9,45-20.9c2.6-2.8,4.3-6.6,6.4-9.9c1.1-1.7,2.1-3.5,3.2-5.2c0.6,0.2,1.2,0.4,1.7,0.6c-0.5,3.3-0.8,6.6-1.7,9.7
		c-5.1,17.9-18.1,27.1-35.1,32.1c-30.1,8.9-60.3,5.2-90.5,0.4c-20.5-3.3-40.3-9.1-59.7-16.4c-4-1.5-7.7-3.8-11.6-5.7
		C147.9,175.9,148,175.5,148.2,175z"/>
	<path fill="#FE0D0D" d="M268.8,120.2c-8.8-2.2-17.7-4.2-26.3-6.9c-5.9-1.8-7.1-6.8-3.7-11.6c0.5-0.7,0.8-1.4,1.2-2.1
		c4.4-8.9,4.4-8.9-2.4-16c-5.9-6.2-4.4-12.5,3.9-14.2c14.1-2.9,26.9-0.8,37.3,10.4c4.9,5.3,8.5,10.9,10.7,17.9
		c3.8,12.2-2.6,20-14.9,21c-1.8,0.1-3.7,0-5.5,0C269,119.2,268.9,119.7,268.8,120.2z M241.2,106.7c10.2,7.8,21.9,8.1,33.7,5.9
		c7.3-1.3,10.6-8.7,9-15.8c-4.2-18.1-23.2-23.4-37.3-22.7c-2,0.1-4.4,1.7-5.4,3.3c-0.5,0.8,1.4,3.6,2.7,5c6.7,6.7,6.8,6.6,2.4,15.2
		C244.8,100.7,243,103.6,241.2,106.7z"/>
	<path fill="#FE0D0D" d="M204.7,73.6c0.4-6.4,2.1-11.8,7-15.8c5-4.1,11.9-4.1,16.4,0c3.7,3.3,4,10-0.1,15c-3.5,4.2-4.2,8.5-2.9,13.4
		c0.6,2.3,2.2,4.4,2.8,6.7c0.7,2.5,0.9,5.2,1.3,7.8c-2.6,0-5.8,1.1-7.7,0C210.9,94.7,205.4,85.3,204.7,73.6z M221.5,93.7
		c0.1-0.2,0.2-0.3,0.2-0.5c-0.1-0.6-0.3-1.3-0.4-1.9c-2.1-7.3-4-14.4,2.6-20.9c2.4-2.3,2.2-6.4-0.8-8.4c-2.9-1.9-6.6-2.3-9.5,0.8
		C205.3,71.5,209.5,87.7,221.5,93.7z"/>
	<path fill="#FE1F1F" d="M229.3,124.5c2.5-4.4,5.3-5.6,8.5-4.5c3.9,1.3,5.7,4.5,5.6,9.2C240.3,123.8,235.7,122.8,229.3,124.5z"/>
	<path fill="#FE1F1F" d="M273.6,55.1c-4.2-1.1-8.2-2.1-12.4-3.1c0.6-3.3,3.7-3,6.4-2.9C271.4,49.2,273.4,51.5,273.6,55.1z"/>
	<path fill="#FE1313" d="M268.9,61.2c2.8-0.7,5.6-2.2,8.3-1.9c3,0.3,6,2.1,5.4,7c-4.2-2-7.8-6.5-13.2-2.5
		C269.2,62.9,269,62,268.9,61.2z"/>
	<path fill="#FE1414" d="M230,112.3c-3.9-1.2-7.8-2.4-12-3.7c1.6-2.6,4.3-2.7,7.5-2C229.1,107.3,230.7,109.1,230,112.3z"/>
	<path fill="#FE0E0E" d="M241.8,53c2.4-0.5,5.1-2.1,7-1.4c2.8,1,5.9,3,5.4,6.5c-4.1-1.4-8-2.7-12-4.1
		C242.1,53.7,241.9,53.3,241.8,53z"/>
	<path fill="#FE0B0B" d="M190.3,26.4c2.4,0.4,5.8,0.6,8.9,1.7c1.6,0.6,3.7,2.7,3.8,4.1c0.1,1.6-1.7,3.8-3.3,4.7
		c-2.3,1.2-5,1.5-7.6,2c-12.1,2-20.4,8.7-25.6,19.7c-1.1,2.4-2.4,4.8-4.2,6.6c-4.5,4.6-9.5,3.2-11.3-2.9c-1.8-6.1-0.9-11.9,2.3-17.3
		C161.9,30.3,175.6,27.2,190.3,26.4z M193.1,32.3c-10.6-3.7-27.2,2.3-31.9,11.2c-2.3,4.3-3.5,9.2-4.9,13.9c-0.3,0.9,1.1,2.4,1.8,3.5
		c1-0.7,2.2-1.2,2.9-2.2c1.5-2.2,2.9-4.4,3.9-6.9c3.6-8.8,9.5-15,19.1-17.1C186.7,34.1,189.4,33.3,193.1,32.3z"/>
	<path fill="#FE1616" d="M217.9,27.5c-4.6-0.8-8.6-1.4-12.6-2.1c1.7-2.8,4.6-4,8.5-2.7C216.3,23.5,219,24.2,217.9,27.5z"/>
	<path fill="#FE0C0C" d="M103.5,26c2,1.5,5,2.6,5.7,4.5c0.9,2.4,0.6,5.7-0.3,8.3c-0.9,2.5-4,4.2-4.9,6.6c-1,3-1.4,6.6-0.9,9.7
		c0.6,3.5,3.1,7.4-0.7,10c-4.1,2.8-7.2-0.6-9.8-3.3c-5.3-5.4-8.4-11.7-7.5-19.7C85.9,35.2,94.5,26.4,103.5,26z M94.9,56.1
		c3.2-8.1,6.4-16.4,9.6-24.7c-4.6-0.9-10.9,2.7-13.1,7.5C88.6,45.3,90.3,52.6,94.9,56.1z"/>
	<path fill="#FE1C1C" d="M67.3,39.7c2.1-2.5,5-3.2,8.7-2.1c3.6,1.1,4.6,3.6,4.7,6.6C76.3,42.7,72,41.3,67.3,39.7z"/>
	<path fill="none" d="M241.2,106.7c1.8-3.1,3.6-6,5.1-9c4.4-8.6,4.2-8.6-2.4-15.2c-1.4-1.4-3.2-4.2-2.7-5
		c1.1-1.6,3.5-3.2,5.4-3.3c14.1-0.8,33.1,4.6,37.3,22.7c1.7,7.1-1.7,14.5-9,15.8C263.1,114.8,251.4,114.5,241.2,106.7z M274,97.3
		c0-8.3-10.8-19.5-18.8-19.4c-1,0-1.9,1.4-2.8,2.1c0.7,0.7,1.3,1.7,2.2,2.1c5.8,2.4,11.3,5.2,13.8,11.2c0.8,2,0.9,5.1-0.2,6.8
		c-0.8,1.2-4,0.7-6.2,0.8c-2.3,0.1-4.7-3.8-6.7-0.1c-0.2,0.4,3.7,3,5.7,4.5c0.6,0.4,1.6,0.5,2.4,0.6C269.8,106.8,274,103.4,274,97.3
		z"/>
	<path fill="none" d="M221.5,93.7c-12-6.1-16.2-22.2-8-30.8c2.9-3.1,6.6-2.7,9.5-0.8c3,2,3.2,6.1,0.8,8.4
		c-6.6,6.5-4.7,13.6-2.6,20.9c0.2,0.6,0.3,1.2,0.4,1.9C221.7,93.4,221.6,93.6,221.5,93.7z"/>
	<path fill="none" d="M193.1,32.3c-3.7,1-6.4,1.9-9.1,2.5c-9.6,2.1-15.5,8.3-19.1,17.1c-1,2.4-2.4,4.7-3.9,6.9
		c-0.6,0.9-1.9,1.5-2.9,2.2c-0.6-1.2-2-2.6-1.8-3.5c1.4-4.7,2.6-9.6,4.9-13.9C165.9,34.6,182.5,28.6,193.1,32.3z"/>
	<path fill="none" d="M94.9,56.1c-4.6-3.5-6.3-10.8-3.4-17.2c2.2-4.8,8.5-8.4,13.1-7.5C101.3,39.8,98.1,48,94.9,56.1z"/>
	<path fill="#FE0E0E" d="M274,97.3c0,6.1-4.2,9.4-10.7,8.6c-0.8-0.1-1.8-0.2-2.4-0.6c-2.1-1.5-5.9-4.1-5.7-4.5
		c2-3.7,4.4,0.2,6.7,0.1c2.2-0.1,5.4,0.3,6.2-0.8c1.1-1.6,1.1-4.8,0.2-6.8c-2.6-6-8.1-8.8-13.8-11.2c-0.9-0.4-1.4-1.4-2.2-2.1
		c0.9-0.7,1.9-2.1,2.8-2.1C263.2,77.8,274,89.1,274,97.3z"/>
</g>
</svg>
