<?xml version="1.0" encoding="utf-8"?>
<!-- Generator: Adobe Illustrator 17.1.0, SVG Export Plug-In . SVG Version: 6.00 Build 0)  -->
<!DOCTYPE svg PUBLIC "-//W3C//DTD SVG 1.1//EN" "http://www.w3.org/Graphics/SVG/1.1/DTD/svg11.dtd">
<svg version="1.1" id="Layer_1" xmlns="http://www.w3.org/2000/svg" xmlns:xlink="http://www.w3.org/1999/xlink" x="0px" y="0px"
	 viewBox="0 0 743 200.3" enable-background="new 0 0 743 200.3" xml:space="preserve">
<g>
	<path fill="#400707" d="M0,87.3c6.3-6.6,14.5-10.5,22.7-14c16.9-7.2,34-14.1,51-21.2c2.9-1.2,5.6-2.8,8.3-4.4
		c11.5-6.9,23-14,34.6-20.8c2.1-1.2,4.5-2.1,6.9-2.7c1-0.2,2.9,0.4,3.3,1.2c0.5,0.9-0.2,2.4-0.5,3.6c-0.1,0.3-0.4,0.5-0.7,0.7
		c-1.5,1.4-3.1,2.9-4.6,4.3c2.2-0.2,4.4-0.4,6.6-0.7c11.1-1.7,22.1-5.3,33.6-3.2c0.3,0.1,0.7,0,1,0.1c16,2.1,22.5,12.8,15.5,27.3
		c-3.3,6.9-8,13.5-13.2,19.2c-26,28.1-57.6,46.9-95.2,54.8c-9.3,1.9-19.2,2.4-28.7,1.6C26.3,132,19,118,24.9,104.7
		c4.8-10.9,12.4-20,20.1-29c0.8-0.9,1.7-1.7,2.3-2.6c0.4-0.6,0.5-1.4,0.8-2c-0.7,0.1-1.6,0-2.2,0.3c-11.2,5.4-22.4,10.9-33.5,16.4
		c-2.2,1.1-4.4,2.2-6.7,3.4c-2.1,1.1-4,0.8-5.6-0.9C0,89.3,0,88.3,0,87.3z M52.2,126.8c6.2-1.1,12.8-1.6,19-3.3
		c29.3-7.9,54.6-23.2,77.6-42.5c7.8-6.5,15.4-13.4,20.4-22.4c5.9-10.5,1.6-19.2-10.3-20.2c-6.6-0.6-13.3-0.4-19.9,0.5
		c-20.9,3-38.8,14.3-57.8,22.5c-0.9,0.4-1.6,1.2-2.4,1.8c-7.8,6.5-16,12.6-23.3,19.6c-6.2,5.9-12,12.5-16.9,19.5
		c-2.6,3.7-3.6,8.8-4.6,13.5c-0.9,4.4,1.6,7.5,5.7,8.6C43.7,125.4,47.8,126,52.2,126.8z"/>
	<path fill="#410808" d="M514.5,125.6c-10.8,4-21.7,8.1-32.6,12c-2,0.7-4.3,0.9-6.4,0.6c-7.2-1-11.5-3.7-7.9-11.9
		c0.6-1.3,0.7-2.7,1-4.1c-1.4,0.3-2.8,0.5-4.2,1c-11.3,4.1-22.6,5-33.9-0.3c-1-0.5-3,0.4-4.1,1.2c-5.8,4.2-11.7,8.2-19,9.5
		c-3.1,0.6-6.5,1.4-8.7-1.7c-2.2-3.2-0.9-6.4,1.1-9.2c2.7-3.9,5.4-7.7,8.1-11.5c0,0-0.1,0.1-0.1,0.1c1-0.7,2.1-1.3,2.9-2.2
		c18-18.4,37.3-35.2,59.1-49c1.9-1.2,4-2.4,6.2-3c1.1-0.3,3.2,0.5,3.7,1.4c0.5,0.9-0.1,2.9-0.9,3.8c-1.4,1.6-3.4,2.6-5.1,3.9
		c-11.8,8.9-23.7,17.8-35.5,26.8c-0.8,0.6-1.2,1.7-1.9,2.5c0.9,0.2,1.9,0.5,2.8,0.5c3.5,0.2,7.6-0.3,9.2,3.5c1.7,3.8-1.2,7-3.4,9.9
		c-1.4,1.8-2.9,3.7-4.8,5.1c-3.4,2.6-1.4,3.3,1.1,4.3c5.9,2.4,12,2.1,17.6-0.3c11.6-5,22.9-10.6,34.3-15.9c2.5-1.2,5.2-2.2,7.9-2.6
		c1.1-0.2,3.1,0.9,3.5,1.9c0.4,1-0.5,3-1.5,3.7c-2.6,2-5.7,3.5-8.3,5.5c-6.4,4.9-12.9,9.9-19,15.2c-1.2,1-1.3,3.4-1.9,5.1
		c1.8,0.3,3.8,1.2,5.5,0.8c13.7-3,26.4-8.9,39-15c1.1-0.5,2-1.7,2.8-2.6c10-11.2,20.5-21.7,32.6-30.9c17.3-13,33.3-27.7,50.7-40.6
		c17.5-12.9,36-24.5,54.3-36.4c4.1-2.7,8.9-4.6,13.5-6.3c4.7-1.7,8.1-0.3,10.5,3.3c2.5,3.8,1.8,7.4-1.1,10.5
		c-4.7,5-9.3,10-14.4,14.6c-19.7,17.9-42.4,30.9-66.7,41.2c-9.3,4-18.5,8.2-27.7,12.5c-18.7,8.9-32.7,23.2-44.8,39.6
		c-0.7,0.9-1.3,2-1.7,3.1c-1,2.8,0.1,4.4,3,3.9c2.7-0.5,5.6-1.2,8-2.6c9.8-5.5,19.9-10.6,28.3-18.5c4.3-4.1,9.4-7.4,14.4-10.6
		c2.2-1.5,5.3-3,7.7-0.2c2.2,2.6,0.8,5.7-0.9,7.8c-2.7,3.3-6,6.2-9,9.3c-0.8,0.8-1.4,1.7-2.1,2.6c1.1,0.7,2.2,1.9,3.2,1.9
		c7.3-0.2,14.6-0.3,21.8-1.1c5.3-0.6,10.5-1.9,15.6-3.2c1.5-0.4,3-1.8,4.1-3.1c18.5-19.6,38.7-37.1,61.4-51.6c1.9-1.2,4.1-2.4,6.2-3
		c1.1-0.3,3.1,0.6,3.6,1.5c0.5,0.9-0.2,2.9-1,3.8c-1.4,1.6-3.4,2.6-5.1,3.9c-11.7,8.8-23.4,17.6-35.1,26.5c-0.9,0.6-1.4,1.7-2.1,2.6
		c1.1,0.3,2.1,0.7,3.2,0.8c3.3,0.2,7.2-0.1,8.8,3.4c1.7,3.6-0.9,6.7-3,9.5c-1.6,2.1-3.4,4.2-5.4,5.9c-2.6,2.2-1.4,2.8,0.9,3.8
		c6,2.6,12.3,2.4,18,0c11.6-4.9,22.9-10.6,34.3-15.8c2.4-1.1,4.8-2.3,7.4-2.7c1.3-0.2,2.8,1.2,4.2,1.8c-0.7,1.4-0.9,3.3-2,4.1
		c-4.1,2.9-8.6,5.1-12.6,8.1c-5.3,4-10.2,8.5-15,13c-1,0.9-0.9,2.9-1.3,4.3c1.5,0.4,3.2,1.5,4.5,1.1c8.1-2.5,16.2-4.9,24.1-8
		c8-3.1,15.8-7.1,23.7-10.4c1.3-0.6,3.2,0,4.8,0.1c-0.8,1.3-1.3,3.1-2.5,3.8c-15.3,8.5-30.9,16.1-48.2,20c-1.8,0.4-3.7,0.4-5.5,0.2
		c-7.4-0.7-9.9-4.6-7.4-11.6c0.3-0.9,1-1.8,1-2.8c0-0.5-1.1-1.5-1.5-1.4c-3.4,0.9-6.7,2.1-10,3c-8.7,2.3-17.2,1.7-25.3-2.1
		c-2.2-1-3.5-0.8-5.3,0.7c-5.6,4.5-11.6,8.6-18.9,9.6c-2.7,0.4-6.3,0.2-8.3-1.3c-2.7-1.9-1.6-5.4-0.2-8.2c0.3-0.5,0.4-1.2,0.5-1.7
		c-0.8,0-1.6-0.2-2.3,0c-6.7,1.4-13.3,2.8-20,4.3c-7.8,1.8-15.4,0.7-22.1-3.4c-3.4-2.1-5.9-1.5-9.1,0.3c-9,5-17.7,10.7-28.1,12.5
		c-4.7,0.8-9.1,0.5-12.3-3.5c-1.2-1.6-1.6-3.8-2.4-5.8c0.1-0.4,0.2-0.7,0.3-1C515.2,125.6,514.9,125.6,514.5,125.6z M594.6,64.4
		c1.2-0.4,2.5-0.8,3.7-1.2c27.1-9.7,50.3-25.5,70.9-45.3c1.8-1.7,3.5-3.5,5-5.5c0.8-1.1,0.9-2.6,1.3-3.9c-1.4,0.1-3-0.2-4.3,0.3
		c-2.9,1.2-5.7,2.6-8.5,4.2c-24.5,14.3-46.9,31.5-68.4,49.9c-0.3,0.3-0.7,0.6-1.1,0.9C593.8,64,594.1,64.2,594.6,64.4z M433.3,107
		c-1.1-3.2-3.1-3.6-4.9-2.2c-6.7,5.3-13.4,10.8-19.8,16.4c-1,0.9-0.9,3-1.3,4.5c1.6,0.1,3.5,0.8,4.7,0.1c5.2-2.8,10.7-5.5,15.2-9.2
		C430.1,114.4,431.4,110.2,433.3,107z M622.8,126.5c7.9-3.8,17.4-6.6,21.1-17c0.5-1.4,0.3-3,0.4-4.6c-1.7,0.1-3.8-0.3-4.9,0.5
		c-6.1,4.6-11.9,9.5-17.7,14.4c-1,0.8-1.7,2.1-2.2,3.3C618.4,125.5,619.5,126.6,622.8,126.5z"/>
	<path fill="#400707" d="M408.1,111.3c-0.8,0.1-1.8-0.1-2.4,0.3c-17.4,9.5-34.7,19.1-52.1,28.4c-3,1.6-4.9,3.6-6.1,6.7
		c-5.2,12.5-11.8,24.3-21.1,34.2c-8.1,8.6-17.1,15.8-28.9,18.7c-7.2,1.8-12.1,0-15.6-5.4c-3.2-5-2.7-10.3,2-16.1
		c7.2-8.9,16.2-15.8,25.8-21.8c8.5-5.3,16.9-10.6,25.5-15.7c2.6-1.6,2.3-2.3,0-3.8c-6.9-4.6-7-7.5-0.6-13
		c9.9-8.4,19.9-16.7,29.8-25.1c1.1-1,2.2-2,3.2-3.2c1.7-1.9,1.1-3.1-1.3-3.1c-2.5-0.1-5.1-0.2-7.4,0.4c-14.6,3.8-28.5,9.1-40.6,18.4
		c-1.8,1.4-3.6,3-5,4.8c-1.2,1.5-4.1,3.3-0.1,5.4c0.3,0.2-0.1,3.2-0.9,4.2c-2.3,2.8-7.2,3.4-9.9,0.8c-2.1-1.9-3.5-1.3-5.6-0.7
		c-10.6,2.9-21.1,5.8-31.8,8c-3.6,0.8-7.7,0.3-11.2-0.8c-5.3-1.7-6.5-6.8-3.1-11.1c3.1-3.9,6.6-7.5,9.9-11.3
		c0.5-0.6,0.8-1.4,1.1-2.1c-0.8-0.1-1.6-0.4-2.3-0.2c-6.6,2.2-13.3,4.2-19.7,6.8c-8.7,3.6-17.3,7.8-25.9,11.7
		c-1.2,0.5-2.5,1.5-3.7,1.4c-1.9,0-4.8-0.1-5.5-1.3c-0.8-1.3-0.3-4.2,0.7-5.7c2-2.8,5-4.9,7.2-7.6c2.2-2.6,3.9-5.5,5.8-8.2
		c-3.7-2.7-7.2,0-10.2,1.3c-15.7,6.7-31.2,13.9-46.8,20.9c-3.9,1.8-7.8,3.8-11.8,5.3c-1.3,0.5-3.8,0.1-4.4-0.8
		c-0.8-1.3-0.7-3.5-0.3-5.1c0.4-1.3,1.7-2.5,2.8-3.4c12.3-9.6,24.7-19.1,37.2-28.5c1.5-1.2,3.5-2,5.4-2.4c1.3-0.3,2.7,0.4,4.1,0.7
		c-0.5,1.3-0.5,3-1.4,3.8c-3.7,3.3-7.7,6.4-11.5,9.6c-0.7,0.6-1.1,1.5-1.6,2.2c1,0.1,2.2,0.5,3.1,0.2c10.3-3.6,20.7-7.3,31-11
		c2.7-0.9,5.3-1.9,8.1-2.5c8.5-1.8,13.6,3.5,11.6,11.9c-0.3,1.2-0.4,2.4-0.6,3.6c1.2-0.3,2.5-0.4,3.7-0.9
		c11.8-4.1,23.5-8.2,35.3-12.2c2-0.7,4.3-1.2,6.4-1c1.7,0.1,3.9,1.1,4.8,2.4c0.5,0.8-0.7,3.3-1.9,4.4c-1.9,1.8-4.5,2.9-6.5,4.7
		c-5,4.5-10.1,9.1-14.7,14c-3.1,3.3-2.1,5.2,2.5,5.5c2.5,0.1,5.1,0,7.4-0.7c9.8-2.6,19.5-5.5,29.2-8.4c1.2-0.3,2.3-1.3,3.1-2.3
		c14-17.4,32.9-26.6,54-31.9c4.8-1.2,10.3-0.4,15.2,0.8c5.6,1.3,7.3,6.5,4.1,11.3c-2.3,3.4-5.1,6.6-8.2,9.3
		c-6.8,5.9-13.9,11.4-20.9,17.1c-1.7,1.4-3.3,2.8-4.9,4.2c-2.6,2.2-1.8,4.4,0.8,5.3c2.5,0.8,5.8,1.3,7.9,0.3
		c14.3-6.6,28.5-13.6,42.7-20.5c3.4-1.7,6.8-3.5,10.3-5C407.3,105.7,408.6,106.7,408.1,111.3L408.1,111.3z M295,192.1
		c2.1-0.8,5.6-1.6,8.5-3.3c14.3-8.7,23.7-21.9,32.1-36c0.3-0.5,0.2-1.2,0.3-1.8c-0.7,0.2-1.5,0.2-2.1,0.5
		c-7.5,4.5-15.2,8.8-22.5,13.7c-5.9,4-11.4,8.5-16.7,13.2c-2.3,2-4,4.9-5.2,7.7C287.9,189.3,290.1,192,295,192.1z M179.1,110
		c-0.2-0.5-0.3-0.7-0.4-1c-0.3,0.1-0.6,0.2-0.9,0.4c-0.1,0.1,0,0.4,0,0.6C178.2,110,178.6,110,179.1,110z"/>
</g>
</svg>
