<?xml version="1.0" encoding="utf-8"?>
<!-- Generator: Adobe Illustrator 17.1.0, SVG Export Plug-In . SVG Version: 6.00 Build 0)  -->
<!DOCTYPE svg PUBLIC "-//W3C//DTD SVG 1.1//EN" "http://www.w3.org/Graphics/SVG/1.1/DTD/svg11.dtd">
<svg version="1.1" id="Layer_1" xmlns="http://www.w3.org/2000/svg" xmlns:xlink="http://www.w3.org/1999/xlink" x="0px" y="0px"
	 viewBox="0 0 179 153.9" enable-background="new 0 0 179 153.9" xml:space="preserve">
<g>
	<path fill="#231F1F" d="M112,153.9c-2.7-0.6-5.7-2.2-8.1-1.6c-5.3,1.3-9.2-0.5-12.3-4.3c-6.4-7.6-5.4-19.2,2.3-28.8
		c3.1-3.9,6.1-7.8,9.3-11.8C91.8,97.3,79,85.9,66.1,74.4C45.6,55.9,25.1,37.5,4.6,19c-1.7-1.5-3.1-3.4-4.6-5.1c0-1.3,0-2.7,0-4
		c5.3-2.7,9,0.6,12.4,3.7c18.2,16.8,36.2,33.8,54.2,50.8c13.5,12.8,27,25.7,40.4,38.6c2.5,2.4,4.6,3.2,7.7,1.2c2-1.3,4.4-2,7.3-3.2
		c-8.1-8-15.9-15.7-23.6-23.4C75.9,55.1,53.6,32.6,31.2,10c-1.5-1.5-2.8-3.4-3.6-5.3c-0.5-1.2-0.6-3.3,0.1-4
		c0.8-0.7,3.1-0.9,4.1-0.3c4,2.9,8.2,5.7,11.5,9.3c26.5,28.4,52.9,57,79.3,85.7c2.8,3,5.3,3.6,9.4,2.7c7.7-1.6,15.8-3.1,23.5-2.4
		c11.2,1,20.5,5.9,23.5,18.2c0,0.7,0,1.3,0,2c-1.1,1.7-2.1,3.3-3.2,5c1-5.7,0.2-10.6-4.3-14.4c-8.3-7.1-23.8-8.8-34.2-3.5
		c8,4,11.9,10.9,13.7,19.1c4.8-1.1,9.1-2.2,13.5-3c4.3-0.8,5.8,0.3,6.4,3.9l0.1-0.1c-4.2,10.8-14.9,13.7-23.7,19.1
		c1.2,1.6,2.2,3,3.2,4.5c-0.2,0.2-0.5,0.4-0.7,0.6c-2.4-1-5.2-3.4-7-2.8c-7.8,2.7-15.3,6.4-22.9,9.7
		C117.3,153.9,114.7,153.9,112,153.9z M129.5,130.5c-6.1-5.4-11.6-10.4-17.3-15.3c-0.8-0.7-2.5-1.4-3.4-1.1
		c-7.4,2.3-15.5,14.8-15.1,22.9c0.4,8,4.4,10.5,11.5,6.8C113.3,139.8,121.1,135.2,129.5,130.5z M116.4,110.2
		c4.4,4.8,9.1,9.7,13.4,14.9c2.9,3.5,5.7,3.9,9.1,1.1C137.2,113.1,124.8,104.9,116.4,110.2z M109,148.6c0.1,0.4,0.3,0.8,0.4,1.2
		c0.6,0.1,1.2,0.1,1.8,0.2c9.3,1.6,16.6-3.5,24.4-7.2c1.9-0.9,4.9-1.7,2.9-4.4c-1.4-1.9-3.1-5.2-6.8-3.1
		C124.2,139.8,116.6,144.2,109,148.6z M167.5,122.1c-12.7-0.1-16.9,3.5-15.2,12.6C157.6,130.9,165.7,130.9,167.5,122.1z"/>
	<path fill="none" d="M167.5,122.1c-1.8,8.8-9.9,8.8-15.2,12.6C150.6,125.6,154.8,122,167.5,122.1z"/>
	<path fill="#231F1F" d="M170.9,123c0.2,0,0.4,0,0.6,0c-0.1,0.2-0.1,0.4-0.2,0.6c-0.1-0.2-0.2-0.4-0.4-0.7
		C171,122.9,170.9,123,170.9,123z"/>
	<path fill="#231F1F" d="M150.6,146.4c0,0.4,0.1,0.8,0.1,1.2c-0.3-0.2-0.6-0.4-0.8-0.6C150.1,146.8,150.3,146.6,150.6,146.4z"/>
</g>
</svg>
