<?xml version="1.0" encoding="utf-8"?>
<!-- Generator: Adobe Illustrator 17.1.0, SVG Export Plug-In . SVG Version: 6.00 Build 0)  -->
<!DOCTYPE svg PUBLIC "-//W3C//DTD SVG 1.1//EN" "http://www.w3.org/Graphics/SVG/1.1/DTD/svg11.dtd">
<svg version="1.1" id="Layer_1" xmlns="http://www.w3.org/2000/svg" xmlns:xlink="http://www.w3.org/1999/xlink" x="0px" y="0px"
	 viewBox="0 0 111 14" enable-background="new 0 0 111 14" xml:space="preserve">
<g>
	<path fill="#2B2727" d="M27,14c-1.7,0-3.3,0-5,0c-2-1.9-4-3.8-5.9-5.7C11.1,3.4,9.7,3.2,4.9,8.2C3.2,9.9,1.9,10.2,0,9
		c0-0.7,0-1.3,0-2c2.7-2.3,5.3-4.7,8-7c1,0,2,0,3,0c3.3,2.5,6.7,4.9,9.8,7.6c3.6,3.1,5.3,3.1,8.9-0.1C32.4,5,35.2,2.5,38,0
		c1,0,2,0,3,0c3.7,1.1,6.3,3.7,8.9,6.4c4.1,4.3,6.1,4.2,10.3,0.2C62.7,4.3,65.4,2.2,68,0c1,0,2,0,3,0c3,2.3,6.2,4.4,9,6.9
		c4.1,3.8,5.8,3.8,9.9-0.1C92.5,4.4,95.3,2.3,98,0c1.3,0,2.7,0,4,0c3,2.3,6,4.7,9,7c0,0.7,0,1.3,0,2c-2.9,2.2-4.3-0.4-5.9-2
		c-4.2-4.1-5.7-3.9-10-0.1c-2.8,2.6-6.1,4.7-9.1,7c-1.3,0-2.7,0-4,0c-2.5-2.4-4.9-4.7-7.4-7.1c-3.8-3.7-5.7-3.8-9.4,0.2
		c-2.9,3.1-6.1,5.7-10.2,6.9c-0.7,0-1.3,0-2,0c-2.7-2.4-5.4-4.7-8.1-7.2c-3.8-3.5-5.4-3.4-9.2,0.1C32.9,9.4,29.9,11.7,27,14z"/>
</g>
</svg>
